<svg xmlns="http://www.w3.org/2000/svg" xmlns:xlink="http://www.w3.org/1999/xlink" width="59" height="227" viewBox="0 0 59 227">
  <defs>
    <path id="page-indicator-b" d="M304.892348,739.381933 C304.892348,723.163312 302.559015,710.466417 297.892348,701.291246 C291.913077,689.535354 283.946174,675.081681 270.483447,658.659821 C262.161149,648.565044 258,639.345103 258,631 C258,622.654897 262.161149,612.93126 270.483447,601.829089 C274.22929,597.284101 279.817272,590.440733 285.196286,582.578143 C290.132764,575.362414 294.893244,567.288269 297.892348,559.344414 C301.252875,550.443247 303.586208,536.044911 304.892348,516.149405 L304.892348,739.381933 Z"/>
    <filter id="page-indicator-a" width="142.7%" height="109%" x="-21.3%" y="-3.6%" filterUnits="objectBoundingBox">
      <feOffset dy="2" in="SourceAlpha" result="shadowOffsetOuter1"/>
      <feGaussianBlur in="shadowOffsetOuter1" result="shadowBlurOuter1" stdDeviation="3"/>
      <feComposite in="shadowBlurOuter1" in2="SourceAlpha" operator="out" result="shadowBlurOuter1"/>
      <feColorMatrix in="shadowBlurOuter1" values="0 0 0 0 0.270588235   0 0 0 0 0.317647059   0 0 0 0 0.329411765  0 0 0 0.1 0"/>
    </filter>
  </defs>
  <g fill="none" fill-rule="evenodd" transform="translate(-252 -515)">
    <use fill="#000" filter="url(#page-indicator-a)" xlink:href="#page-indicator-b"/>
    <path fill="#FFF" stroke="#E8E7E7" stroke-linejoin="square" d="M304.392348,722.46863 L304.392348,528.396076 C303.016578,542.136526 301.007551,552.50866 298.360121,559.521016 C295.616004,566.789476 291.264885,574.593099 285.608955,582.860461 C281.181727,589.331811 276.978992,594.733933 270.883522,602.128989 C262.620251,613.152416 258.5,622.780484 258.5,631 C258.5,639.212467 262.614382,648.328785 270.870118,658.342826 C282.330553,672.322286 290.077056,684.822635 298.338015,701.064572 C301.271952,706.833009 303.288994,713.967446 304.392348,722.46863 Z"/>
  </g>
</svg>
