<?xml version="1.0" encoding="UTF-8"?>
<svg width="32px" height="32px" viewBox="0 0 32 32" version="1.1" xmlns="http://www.w3.org/2000/svg" xmlns:xlink="http://www.w3.org/1999/xlink">
    <!-- Generator: Sketch 63.1 (92452) - https://sketch.com -->
    <title>MMF icon 32x32 outlined</title>
    <desc>Created with Sketch.</desc>
    <g id="MMF-icon-32x32-outlined" stroke="none" stroke-width="1" fill="none" fill-rule="evenodd">
        <path d="M27.8680935,14.8290286 L27.8678338,29.79 L31.7122494,29.7902338 L31.7122494,31.2447792 L0.127833766,31.2447792 L0.127833766,29.7902338 L3.55583377,29.79 L3.55640519,21.4783792 L9.58237922,21.4783792 L9.58183377,29.79 L12.6988338,29.79 L12.6992623,18.1537039 L18.7252364,18.1537039 L18.7248338,29.79 L21.8418338,29.79 L21.8421195,14.8290286 L27.8680935,14.8290286 Z M8.127,22.932 L5.01,22.932 L5.01,29.79 L8.127,29.79 L8.127,22.932 Z M17.27,19.608 L14.153,19.608 L14.153,29.79 L17.27,29.79 L17.27,19.608 Z M26.413,16.283 L23.296,16.283 L23.296,29.79 L26.413,29.79 L26.413,16.283 Z M10.3943138,2 L10.3950296,3.89941284 C11.6212318,4.19621937 12.6360467,5.27711198 12.7214542,6.36022244 L12.7272727,6.50690233 L11.2727273,6.50690233 C11.2727273,6.0060137 10.5080114,5.2743611 9.73896659,5.2743611 C9.27302742,5.2743611 8.82471286,5.46110604 8.48533323,5.80935803 C7.78128074,6.53261855 7.78192934,7.71253698 8.4867458,8.44087853 C8.75388211,8.71683832 9.04473942,8.9108634 9.51281902,9.13973781 L9.96753405,9.35120887 C10.9100226,9.77986087 11.3600378,10.0533538 11.83628,10.6030361 C13.0176125,11.9669533 13.0402272,13.9654152 11.8075817,15.2312218 C11.4009754,15.6487667 10.9123858,15.932169 10.3948789,16.0818194 L10.3943138,18 L8.93976836,18 L8.93954899,16.156463 C8.31057998,16.0425383 7.70983251,15.7378296 7.22807334,15.2430052 C7.10374332,15.1210397 6.93489957,14.9271484 6.76568386,14.6761881 C6.49967418,14.2816747 6.32176155,13.872548 6.2814398,13.444593 L6.27272727,13.2600186 L7.72727273,13.2600186 C7.72727273,13.4125877 7.81484181,13.630396 7.97168842,13.8630119 C8.0789873,14.0221446 8.18665816,14.1457882 8.25841143,14.2164433 C8.95305745,14.929777 10.0708573,14.929777 10.7655033,14.2164433 C11.4523756,13.5110926 11.4394239,12.366541 10.7368766,11.5554093 C10.4927162,11.2735976 10.2396754,11.095555 9.73869342,10.8504555 L9.11442801,10.5606203 C8.36919165,10.2161479 7.89852453,9.92451408 7.44156974,9.45246613 C6.19070188,8.1598473 6.18955994,6.08247796 7.44334869,4.79448338 C7.86316038,4.36369641 8.38058064,4.0669178 8.93893374,3.92189591 L8.93976836,2 L10.3943138,2 Z" id="Combined-Shape" fill="#000000" fill-rule="nonzero"></path>
    </g>
</svg>