<?xml version="1.0" encoding="UTF-8"?>
<svg width="26px" height="26px" viewBox="0 0 26 26" version="1.1" xmlns="http://www.w3.org/2000/svg" xmlns:xlink="http://www.w3.org/1999/xlink">
    <title>分组 2 copy 17</title>
    <g id="话费流量" stroke="none" stroke-width="1" fill="none" fill-rule="evenodd">
        <g id="1-首页" transform="translate(-318.000000, -281.000000)" fill-rule="nonzero">
            <g id="分组-6" transform="translate(19.000000, 281.000000)">
                <g id="分组-5" transform="translate(299.000000, 0.000000)">
                    <g id="分组-3" transform="translate(4.000000, 4.000000)">
                        <path d="M3.57142857,11.1428571 C2.70355804,11.1428571 2,10.4392991 2,9.57142857 C2,8.70355804 2.70355804,8 3.57142857,8 C4.43929911,8 5.14285714,8.70355804 5.14285714,9.57142857 C5.14285714,10.4392991 4.43929911,11.1428571 3.57142857,11.1428571 Z M9.16964286,11.1428571 C8.30177232,11.1428571 7.59821429,10.4392991 7.59821429,9.57142857 C7.59821429,8.70355804 8.30177232,8 9.16964286,8 C10.0375134,8 10.7410714,8.70355804 10.7410714,9.57142857 C10.7410714,10.4392991 10.0375134,11.1428571 9.16964286,11.1428571 Z M14.7678571,11.1428571 C13.8999866,11.1428571 13.1964286,10.4392991 13.1964286,9.57142857 C13.1964286,8.70355804 13.8999866,8 14.7678571,8 C15.6357277,8 16.3392857,8.70355804 16.3392857,9.57142857 C16.3392857,10.4392991 15.6357277,11.1428571 14.7678571,11.1428571 Z" id="形状" fill="#548191"></path>
                        <circle id="椭圆形" stroke="#548191" stroke-width="2" cx="9" cy="9" r="10"></circle>
                    </g>
                </g>
            </g>
        </g>
    </g>
</svg>