<?xml version="1.0" encoding="UTF-8"?>
<svg width="28px" height="28px" viewBox="0 0 28 28" version="1.1" xmlns="http://www.w3.org/2000/svg" xmlns:xlink="http://www.w3.org/1999/xlink">
    <title>理财推荐</title>
    <g id="首页" stroke="none" stroke-width="1" fill="none" fill-rule="evenodd">
        <g id="3-全部应用" transform="translate(-289.000000, -692.000000)" fill="#333333" fill-rule="nonzero">
            <g id="licai-4" transform="translate(293.000000, 694.000000)">
                <path d="M9.72867063,23.0358796 C8.88210978,23.0358796 8.03554893,22.9512236 7.27364418,22.7819114 C4.81861774,22.358631 2.61755952,21.3427579 1.17840608,19.8189484 C0.924437818,19.5649802 0.924437818,19.1416997 1.26306218,18.8877315 C1.51703044,18.6337632 1.94031085,18.6337632 2.19427911,18.9723876 C3.37946429,20.2422288 5.32655425,21.1734457 7.52761244,21.5967262 C8.20486111,21.7660384 8.96676589,21.7660384 9.72867063,21.7660384 C11.2524802,21.7660384 11.8450727,21.7660384 13.7921627,21.0887897 C14.3847553,20.8348214 17.5170304,19.0570436 18.109623,17.7025463 C18.109623,17.7025463 18.109623,17.6178902 18.1942791,17.6178902 C18.3635913,17.2792659 18.4482474,17.0252976 18.5329034,16.7713294 C18.6175595,16.432705 18.8715278,16.1787368 19.2101521,16.1787368 C19.5487764,16.1787368 19.8874008,16.5173611 19.8874008,16.8559854 L19.8874008,16.9406415 C19.8027447,17.5332341 19.6334325,17.9565145 19.3794643,18.379795 C19.3794643,18.379795 19.3794643,18.464451 19.2948082,18.4644511 C18.3635913,20.3268849 14.8926918,22.2739749 14.2154431,22.5279431 C12.099041,23.0358796 11.3371362,23.0358796 9.72867063,23.0358796 L9.72867063,23.0358796 Z M12.099041,16.6866733 C11.9297288,16.6866733 11.7604167,16.6020172 11.6757606,16.5173611 C10.3212632,15.2475198 7.69692462,14.4856151 4.98792989,14.5702712 C4.81861771,14.5702712 4.64930556,14.4856151 4.47999337,14.400959 C2.95618385,12.7924934 2.02496693,10.6760913 2.02496693,8.47503307 C2.02496693,3.81894841 5.83449074,0.00942459491 10.4905754,0.00942459491 C15.1466601,0.00942459491 18.9561839,3.81894841 18.9561839,8.47503307 C18.9561839,12.453869 16.077877,15.9247685 12.1836971,16.7713294 C12.1836971,16.6866733 12.099041,16.6866733 12.099041,16.6866733 Z M5.41121033,13.2157738 C8.20486111,13.2157738 10.7445437,13.9776786 12.2683532,15.3321759 C15.4006283,14.5702712 17.6016865,11.6919643 17.6016865,8.47503307 C17.6016865,4.49619711 14.3847553,1.36392196 10.4905754,1.36392196 C6.51173944,1.36392196 3.37946429,4.58085318 3.37946429,8.47503307 C3.37946429,10.2528109 4.05671296,11.9459326 5.24189815,13.3004299 C5.24189815,13.2157738 5.32655422,13.2157738 5.41121033,13.2157738 L5.41121033,13.2157738 Z" id="形状"></path>
                <path d="M13.0302579,18.6337632 C12.6916336,18.6337632 12.4376653,18.379795 12.3530093,18.0411706 C12.2683532,17.5332341 12.0143849,17.0252976 11.5911045,16.5173611 C11.3371362,16.2633929 11.3371362,15.8401124 11.5911045,15.5861442 C11.8450727,15.3321759 12.2683532,15.3321759 12.5223214,15.5861442 C13.1995701,16.2633929 13.6228505,17.1099537 13.7075066,17.8718585 C13.7921627,18.2104828 13.4535384,18.5491071 13.114914,18.5491071 C13.114914,18.6337632 13.114914,18.6337632 13.0302579,18.6337632 L13.0302579,18.6337632 Z M0.670469589,15.416832 C0.416501331,15.416832 0.162533073,15.2475198 0.0778769965,14.9935516 C-0.0914351852,14.6549273 0.0778769965,14.3163029 0.416501331,14.1469907 C1.26306218,13.8083664 2.19427911,13.5543981 3.29480819,13.385086 C3.8027447,13.3004299 4.3953373,13.2157738 4.90327381,13.2157738 C5.24189815,13.1311177 5.58052248,13.4697421 5.58052248,13.8083664 C5.58052248,14.1469907 5.32655422,14.4856151 4.98792989,14.4856151 C4.47999337,14.4856151 3.97205689,14.5702712 3.46412037,14.6549273 C2.53290344,14.8242394 1.68634259,14.9935516 0.924437818,15.3321759 C0.839781742,15.3321759 0.755125637,15.416832 0.670469589,15.416832 L0.670469589,15.416832 Z M7.69692459,22.8665674 C7.35830026,22.8665674 7.01967593,22.5279431 7.01967593,22.1893188 C7.01967593,21.8506944 7.35830026,21.5120701 7.69692459,21.5120701 C8.03554893,21.5120701 8.37417329,21.8506944 8.37417329,22.1893188 C8.37417329,22.6125992 8.03554896,22.8665674 7.69692459,22.8665674 Z" id="形状"></path>
                <path d="M10.9985119,18.8030754 C9.3900463,18.8030754 7.78158067,18.379795 6.34242726,17.7025463 C6.00380292,17.5332341 5.91914685,17.1099537 6.088459,16.8559854 C6.25777118,16.5173611 6.68105159,16.432705 6.93501985,16.6020172 C8.12020503,17.1946098 9.55935848,17.5332341 10.9985119,17.5332341 C11.6757606,17.5332341 12.2683532,17.448578 12.9456019,17.2792659 C14.2154431,17.0252976 15.4006283,16.432705 16.3318452,15.6708003 C16.5011574,15.5014881 16.6704696,15.3321759 16.9244378,15.1628637 C17.1784061,14.9088955 17.6016865,14.9088955 17.8556548,15.1628637 C18.109623,15.416832 18.109623,15.8401124 17.8556548,16.0940807 C17.6016865,16.348049 17.4323744,16.5173611 17.1784061,16.6866733 C16.077877,17.5332341 14.7233796,18.2104828 13.1995701,18.5491071 C12.5223214,18.7184193 11.7604167,18.8030754 10.9985119,18.8030754 Z" id="路径"></path>
                <path d="M19.2101521,17.5332341 C18.8715278,17.5332341 18.5329034,17.1946098 18.5329034,16.8559854 C18.5329034,16.6020172 18.4482474,16.432705 18.2789352,16.2633929 C18.109623,16.1787368 18.0249669,16.0940807 17.8556548,16.0940807 C17.7709987,16.0940807 17.7709987,16.0940807 17.7709987,16.1787368 C17.6863426,16.2633929 17.6016865,16.2633929 17.5170304,16.3480489 C17.1784061,16.5173611 16.8397817,16.432705 16.6704696,16.0094246 C16.5011574,15.6708003 16.5858135,15.3321759 16.9244378,15.1628637 C17.09375,14.9935516 17.2630622,14.9088955 17.6016865,14.8242394 L17.6863426,14.8242394 C18.2789352,14.7395833 18.8715278,14.9088955 19.2101521,15.2475198 C19.6334325,15.6708003 19.8874008,16.1787368 19.8874008,16.7713294 C19.8874008,17.1946098 19.5487764,17.5332341 19.2101521,17.5332341 L19.2101521,17.5332341 Z M13.0302579,9.49090608 L7.86623678,9.49090608 C7.52761244,9.49090608 7.18898811,9.15228174 7.18898811,8.81365741 C7.18898811,8.47503307 7.52761244,8.13640874 7.86623678,8.13640874 L13.0302579,8.13640874 C13.3688823,8.13640874 13.7075066,8.47503307 13.7075066,8.81365741 C13.7075066,9.15228174 13.3688823,9.49090608 13.0302579,9.49090608 L13.0302579,9.49090608 Z" id="形状"></path>
                <path d="M10.4905754,12.1152447 C10.1519511,12.1152447 9.81332671,11.7766204 9.81332671,11.437996 L9.81332671,8.89831348 C9.81332671,8.55968915 10.151951,8.22106481 10.4905754,8.22106481 C10.8291998,8.22106481 11.1678241,8.55968915 11.1678241,8.89831348 L11.1678241,11.5226521 C11.1678241,11.7766204 10.8291997,12.1152447 10.4905754,12.1152447 Z" id="路径"></path>
                <path d="M10.4905754,8.47503307 C10.3212632,8.47503307 10.1519511,8.390377 9.98263889,8.30572089 L8.20486111,6.52794311 C7.95089285,6.27397486 7.95089285,5.85069444 8.20486111,5.59672619 C8.45882937,5.34275793 8.88210978,5.34275793 9.13607804,5.59672619 L10.9138558,7.37450396 C11.1678241,7.62847222 11.1678241,8.05175263 10.9138558,8.30572089 C10.8291997,8.47503307 10.6598876,8.47503307 10.4905754,8.47503307 Z" id="路径"></path>
                <path d="M10.4905754,8.47503307 C10.3212632,8.47503307 10.1519511,8.390377 9.98263889,8.30572089 C9.72867063,8.05175263 9.72867063,7.62847222 9.98263889,7.37450396 L11.7604167,5.59672619 C12.0143849,5.34275793 12.4376653,5.34275793 12.6916336,5.59672619 C12.9456019,5.85069444 12.9456019,6.27397486 12.6916336,6.52794311 L10.9138558,8.30572089 C10.7445436,8.47503307 10.6598876,8.47503307 10.4905754,8.47503307 Z" id="路径"></path>
            </g>
        </g>
    </g>
</svg>