<?xml version="1.0" encoding="UTF-8"?>
<svg width="28px" height="28px" viewBox="0 0 28 28" version="1.1" xmlns="http://www.w3.org/2000/svg" xmlns:xlink="http://www.w3.org/1999/xlink">
    <title>存款</title>
    <g id="首页" stroke="none" stroke-width="1" fill="none" fill-rule="evenodd">
        <g id="3-全部应用" transform="translate(-324.000000, -692.000000)" fill="#333333" fill-rule="nonzero">
            <g id="licai-3" transform="translate(327.000000, 695.000000)">
                <path d="M10.9763286,0 C17.0383959,0 21.9526572,4.91426132 21.9526572,10.9763286 C21.9526572,17.0383959 17.0383959,21.9526572 10.9763286,21.9526572 C4.91426132,21.9526572 0,17.0383959 0,10.9763286 C0,4.91426132 4.91426132,0 10.9763286,0 Z M10.9763286,1.64644929 C5.82357784,1.64644929 1.64644929,5.82357784 1.64644929,10.9763286 C1.64644929,16.1290793 5.82357784,20.3062079 10.9763286,20.3062079 C16.1290793,20.3062079 20.3062079,16.1290793 20.3062079,10.9763286 C20.3062079,5.82357784 16.1290793,1.64644929 10.9763286,1.64644929 Z M10.9763286,6.3194681 L15.6331891,10.9763286 L10.9763286,15.6331891 L6.3194681,10.9763286 L10.9763286,6.3194681 Z M8.64788548,10.9763286 L10.9763286,13.3047717 L13.3047717,10.9763286 L10.9763286,8.64788548 L8.64788548,10.9763286 L8.64788548,10.9763286 Z" id="形状"></path>
            </g>
        </g>
    </g>
</svg>