<?xml version="1.0" encoding="UTF-8"?>
<svg width="28px" height="28px" viewBox="0 0 28 28" version="1.1" xmlns="http://www.w3.org/2000/svg" xmlns:xlink="http://www.w3.org/1999/xlink">
    <title>切片备份 4</title>
    <g id="首页" stroke="none" stroke-width="1" fill="none" fill-rule="evenodd">
        <g id="licai-3" transform="translate(3.000000, 2.000000)" fill="#4F4E4E" fill-rule="nonzero">
            <path d="M11.4752526,0 C17.8128684,0 22.9505052,5.13763684 22.9505052,11.4752526 C22.9505052,17.8128684 17.8128684,22.9505052 11.4752526,22.9505052 C5.13763684,22.9505052 0,17.8128684 0,11.4752526 C0,5.13763684 5.13763684,0 11.4752526,0 Z M11.4752526,1.72128789 C6.08828593,1.72128789 1.72128789,6.08828593 1.72128789,11.4752526 C1.72128789,16.8622193 6.08828593,21.2292173 11.4752526,21.2292173 C16.8622193,21.2292173 21.2292173,16.8622193 21.2292173,11.4752526 C21.2292173,6.08828593 16.8622193,1.72128789 11.4752526,1.72128789 Z M11.4752526,6.60671664 L16.3437886,11.4752526 L11.4752526,16.3437886 L6.60671664,11.4752526 L11.4752526,6.60671664 Z M9.04097118,11.4752526 L11.4752526,13.9095341 L13.9095341,11.4752526 L11.4752526,9.04097118 L9.04097118,11.4752526 L9.04097118,11.4752526 Z" id="形状"></path>
        </g>
    </g>
</svg>