<?xml version="1.0" encoding="UTF-8"?>
<svg width="28px" height="28px" viewBox="0 0 28 28" version="1.1" xmlns="http://www.w3.org/2000/svg" xmlns:xlink="http://www.w3.org/1999/xlink">
    <title>切片备份 3</title>
    <g id="首页" stroke="none" stroke-width="1" fill="none" fill-rule="evenodd">
        <g id="icon_A" transform="translate(3.000000, 2.000000)" fill="#4F4E4E" fill-rule="nonzero">
            <path d="M10.4397141,4.76457296 C10.5588977,4.76340646 10.6645179,4.84113347 10.6988348,4.95527586 L11.6466106,7.91072414 C11.6822792,8.02390659 11.7870622,8.10101753 11.9057313,8.10141379 L14.973421,8.10141379 C15.0922069,8.10305022 15.1966841,8.18034844 15.2329938,8.29346075 C15.2693034,8.40657306 15.2293368,8.53023855 15.1336968,8.6007069 L12.6517141,10.4275862 C12.5558674,10.4985209 12.5160308,10.622743 12.5527485,10.7361897 L13.5006451,13.6916379 C13.5280061,13.7753547 13.5138095,13.8671005 13.4624257,13.9386325 C13.4110419,14.0101644 13.3286298,14.0529087 13.2405589,14.0537069 C13.183024,14.0533939 13.1271356,14.034468 13.0812485,13.9997586 L10.5995072,12.1732414 C10.504269,12.1029269 10.3743143,12.1029269 10.2790761,12.1732414 L7.79745544,14 C7.7515725,14.0347172 7.69568147,14.0536439 7.6381451,14.0539483 C7.55007421,14.0531501 7.46766206,14.0104058 7.41627826,13.9388738 C7.36489446,13.8673419 7.35069793,13.7755961 7.37805889,13.6918793 L8.32595544,10.736431 C8.36267321,10.6229844 8.32283664,10.4987623 8.22698993,10.4278276 L5.74488648,8.60082759 C5.64926295,8.53037283 5.60929038,8.40673752 5.64556877,8.29363751 C5.68184716,8.18053751 5.78627765,8.10322147 5.90504165,8.10153448 L8.97309337,8.10153448 C9.09173718,8.10106162 9.1964799,8.02398035 9.23221406,7.91084483 L10.1802313,4.95527586 C10.2145482,4.84113347 10.3201684,4.76340646 10.439352,4.76457296 M10.439352,3.38437931 C9.72691035,3.38577614 9.09762258,3.84893741 8.88450717,4.52875862 L8.18100717,6.72132759 L5.90528303,6.72132759 C5.19286032,6.72286461 4.56361152,7.18596125 4.35031751,7.8657069 C4.12958674,8.54644795 4.36873614,9.29208282 4.94423131,9.71744828 L6.785352,11.072431 L6.08209337,13.2648793 C5.92092662,13.7679826 6.00615929,14.3176126 6.31212786,14.7482759 C6.61813404,15.1766934 7.11142839,15.4318952 7.63790372,15.4341552 C7.98372426,15.4341552 8.32035387,15.3228004 8.59798993,15.1166207 L10.4397141,13.7615172 L12.2808348,15.1166207 C12.5584628,15.3228158 12.8950977,15.4341552 13.240921,15.4341552 C13.7673878,15.4319954 14.2606885,15.1767671 14.5665761,14.7482759 C14.8728491,14.317747 14.9582305,13.7680236 14.7969727,13.2648793 L14.0937141,11.072431 L15.9345934,9.71744828 C16.5103043,9.29229245 16.7495498,8.54655814 16.5286279,7.86582759 C16.3155089,7.18593982 15.6861686,6.72272697 14.9736623,6.72132759 L12.6975761,6.72132759 L11.9941968,4.52875862 C11.7811216,3.84906461 11.152022,3.38593393 10.4397141,3.38437931 L10.439352,3.38437931 Z M20.8793692,18.1359138 L20.8793692,0 L2.04345544,0 C0.908097893,0.00876745686 -0.00596366156,0.934814225 2.93014757e-05,2.07018966 L2.93014757e-05,20.5512759 L0.0209382025,20.5512759 C0.0118386153,22.2545397 1.38321606,23.6437342 3.08645544,23.6566207 L20.1854037,23.6566207 C20.5665373,23.6566207 20.8755072,23.3476509 20.8755072,22.9665172 C20.8755072,22.5853836 20.5665373,22.2764138 20.1854037,22.2764138 L3.08621406,22.2764138 C2.15204671,22.2504972 1.40821419,21.4857423 1.40821419,20.5512155 C1.40821419,19.6166887 2.15204671,18.8519339 3.08621406,18.8260172 L20.1854037,18.8260172 C20.5640464,18.8234926 20.8689836,18.5145573 20.8665761,18.1359138 L20.8793692,18.1359138 L20.8793692,18.1359138 Z M19.516421,1.3802069 L19.516421,17.445931 L3.08621406,17.445931 C2.47008949,17.4456025 1.86859571,17.6336772 1.36239386,17.984931 L1.36239386,2.07018966 C1.36039646,1.69172886 1.6651208,1.3830632 2.04357613,1.3802069 L19.516421,1.3802069 L19.516421,1.3802069 Z M20.1854037,21.2413793 L3.12254165,21.2413793 C2.74500024,21.2363862 2.44156425,20.9289106 2.44156425,20.5513362 C2.44156425,20.1737618 2.74500024,19.8662862 3.12254165,19.8612931 L20.1854037,19.8612931 C20.5629451,19.8662862 20.8663811,20.1737618 20.8663811,20.5513362 C20.8663811,20.9289106 20.5629451,21.2363862 20.1854037,21.2413793 L20.1854037,21.2413793 Z" id="形状"></path>
        </g>
    </g>
</svg>