<?xml version="1.0" encoding="UTF-8"?>
<svg width="16px" height="15px" viewBox="0 0 16 15" version="1.1" xmlns="http://www.w3.org/2000/svg" xmlns:xlink="http://www.w3.org/1999/xlink">
    <title>laba-3</title>
    <g id="首页" stroke="none" stroke-width="1" fill="none" fill-rule="evenodd">
        <g id="1-首页备份-8" transform="translate(-24.000000, -369.000000)" fill="#E1B522" fill-rule="nonzero">
            <g id="编组-10" transform="translate(24.000000, 367.000000)">
                <g id="laba-3" transform="translate(0.000000, 2.000000)">
                    <path d="M8.60710015,12.7724394 C8.57455742,12.7381938 8.54121328,12.7048496 8.50710015,12.6724394 L8.60710015,12.7724394 Z M7.53431516,2.30969053 L4.34347138,4.96918117 L1.63493277,4.96918117 L1.63493277,9.61784 L4.84267084,9.61784 L7.53377018,11.8598778 L7.53377018,2.30969053 L7.53431516,2.30969053 Z M8.60655517,1.47696478 L8.50655517,1.57696478 C8.53983628,1.54455455 8.57236716,1.5112104 8.60411616,1.47696478 L8.60655517,1.47696478 Z M3.75053576,3.3342484 L7.41932489,0.276924132 C7.72333697,-0.00415514178 8.16492246,-0.0785729057 8.54426427,0.0873448195 C8.92360608,0.253262545 9.16870295,0.628032925 9.16870295,1.04207266 L9.16870295,13.1274957 C9.16870295,13.5415354 8.92360608,13.9163058 8.54426427,14.0822235 C8.16492246,14.2481412 7.72333697,14.1737235 7.41932489,13.8926442 L4.25082519,11.2522278 L1.63493277,11.2522278 C0.731984339,11.2522278 0,10.5202435 0,9.61729502 L0,4.96863618 C0,4.06568775 0.731984339,3.33370343 1.63493277,3.33370343 L3.75053576,3.33370343 L3.75053576,3.3342484 Z M13.5470529,11.9383546 C13.3074724,12.1054087 12.9969686,12.1319583 12.7325053,12.0080026 C12.4680419,11.8840468 12.2897973,11.6284175 12.2649145,11.3374077 C12.2400317,11.0463978 12.3722909,10.7642188 12.6118714,10.5971647 C12.8107882,10.4587404 12.9966255,10.3028768 13.1677485,10.1312089 C13.9358209,9.36577523 14.3667816,8.32554554 14.3650643,7.24119273 C14.3663539,5.93088033 13.7382804,4.69966981 12.6767237,3.93154383 C12.3113306,3.66622749 12.2302023,3.15493643 12.4955186,2.7895433 C12.760835,2.42415017 13.272126,2.34302191 13.6375192,2.60833825 C15.1226091,3.6839762 16.0013202,5.40693916 15.9999985,7.24064776 C15.9999985,8.77857452 15.3896221,10.2216752 14.3241909,11.2876513 C14.0844008,11.5268965 13.8244465,11.7443425 13.5470529,11.9383546 L13.5470529,11.9383546 Z M11.9606231,9.07940214 C11.7310698,9.25998801 11.4226123,9.30439098 11.1514437,9.19588487 C10.8802751,9.08737877 10.6875922,8.84244826 10.645977,8.55335629 C10.6043617,8.26426432 10.7201364,7.97493084 10.9496897,7.79434498 C11.0799394,7.69243417 11.1584161,7.53275574 11.1584161,7.356183 C11.1584161,7.17525045 11.0755795,7.01284713 10.9404251,6.91093631 C10.5792457,6.64005178 10.5060473,6.12766275 10.7769318,5.76648337 C11.0478163,5.405304 11.5602054,5.33210557 11.9213848,5.6029901 C12.4658174,6.01117831 12.7933489,6.65752173 12.7933489,7.356183 C12.7933489,8.03740499 12.4821667,8.66957899 11.9606231,9.07940214 L11.9606231,9.07940214 Z" id="形状"></path>
                </g>
            </g>
        </g>
    </g>
</svg>