<?xml version="1.0" encoding="UTF-8"?>
<svg width="30px" height="30px" viewBox="0 0 30 30" version="1.1" xmlns="http://www.w3.org/2000/svg" xmlns:xlink="http://www.w3.org/1999/xlink">
    <title>产品</title>
    <g id="话费流量" stroke="none" stroke-width="1" fill="none" fill-rule="evenodd">
        <g id="2-全部应用备份-19" transform="translate(-21.000000, -374.000000)">
            <g id="定期存款备份" transform="translate(12.000000, 373.000000)">
                <g id="分组-2"></g>
            </g>
            <g id="licai-3" transform="translate(24.000000, 376.000000)" fill="#548191" fill-rule="nonzero">
                <path d="M11.9831587,0.00898203593 C18.596323,0.00898203593 23.9573353,5.36999439 23.9573353,11.9831587 C23.9573353,18.596323 18.596323,23.9573353 11.9831587,23.9573353 C5.36999439,23.9573353 0.00898203593,18.596323 0.00898203593,11.9831587 C0.00898203593,5.36999439 5.36999439,0.00898203593 11.9831587,0.00898203593 Z M11.9831587,1.80510853 C6.36197605,1.80510853 1.80510853,6.36197605 1.80510853,11.9831587 C1.80510853,17.6043413 6.36197605,22.1612088 11.9831587,22.1612088 C17.6043413,22.1612088 22.1612088,17.6043413 22.1612088,11.9831587 C22.1612088,6.36197605 17.6043413,1.80510853 11.9831587,1.80510853 Z M11.9831587,6.90294723 L17.0633701,11.9831587 L11.9831587,17.0633701 L6.90294723,11.9831587 L11.9831587,6.90294723 Z M9.44303892,11.9831587 L11.9831587,14.5232784 L14.5232784,11.9831587 L11.9831587,9.44303892 L9.44303892,11.9831587 L9.44303892,11.9831587 Z" id="形状"></path>
            </g>
        </g>
    </g>
</svg>