<?xml version="1.0" encoding="UTF-8"?>
<svg width="30px" height="30px" viewBox="0 0 30 30" version="1.1" xmlns="http://www.w3.org/2000/svg" xmlns:xlink="http://www.w3.org/1999/xlink">
    <title>推荐</title>
    <g id="话费流量" stroke="none" stroke-width="1" fill="none" fill-rule="evenodd">
        <g id="2-全部应用备份-19" transform="translate(-171.000000, -374.000000)">
            <g id="定期存款备份" transform="translate(12.000000, 373.000000)">
                <g id="分组-2"></g>
            </g>
            <g id="licai-4" transform="translate(173.000000, 375.000000)" fill="#548191" fill-rule="nonzero">
                <path d="M11.1879712,26.4912616 C10.2144262,26.4912616 9.24088127,26.3939071 8.36469081,26.1991981 C5.5414104,25.7124256 3.01019345,24.5441716 1.35516699,22.7917907 C1.06310349,22.4997272 1.06310349,22.0129547 1.45252151,21.7208912 C1.74458501,21.4288277 2.23135748,21.4288277 2.52342098,21.8182457 C3.88638394,23.2785631 6.12553739,24.3494626 8.65675431,24.8362351 C9.43559028,25.0309441 10.3117808,25.0309441 11.1879712,25.0309441 C12.9403522,25.0309441 13.6218337,25.0309441 15.8609871,24.2521081 C16.5424686,23.9600446 20.144585,21.9156002 20.8260665,20.3579282 C20.8260665,20.3579282 20.8260665,20.2605738 20.923421,20.2605738 C21.11813,19.8711558 21.2154845,19.5790923 21.312839,19.2870288 C21.4101934,18.8976108 21.7022569,18.6055473 22.0916749,18.6055473 C22.4810929,18.6055473 22.8705109,18.9949653 22.8705109,19.3843833 L22.8705109,19.4817378 C22.7731564,20.1632192 22.5784474,20.6499917 22.2863839,21.1367642 C22.2863839,21.1367642 22.2863839,21.2341187 22.1890294,21.2341187 C21.11813,23.3759177 17.1265955,25.6150711 16.3477596,25.9071346 C13.9138972,26.4912616 13.0377067,26.4912616 11.1879712,26.4912616 L11.1879712,26.4912616 Z M13.9138972,19.1896743 C13.7191881,19.1896743 13.5244792,19.0923198 13.4271247,18.9949653 C11.8694527,17.5346478 8.85146332,16.6584573 5.73611937,16.7558118 C5.54141036,16.7558118 5.34670139,16.6584573 5.15199238,16.5611028 C3.39961143,14.7113674 2.32871197,12.277505 2.32871197,9.74628803 C2.32871197,4.39179067 6.70966435,0.0108382841 12.0641617,0.0108382841 C17.4186591,0.0108382841 21.7996114,4.39179067 21.7996114,9.74628803 C21.7996114,14.3219494 18.4895585,18.3134838 14.0112516,19.2870288 C14.0112516,19.1896743 13.9138972,19.1896743 13.9138972,19.1896743 Z M6.22289188,15.1981399 C9.43559028,15.1981399 12.3562252,16.0743304 14.1086062,17.6320023 C17.7107226,16.7558118 20.2419395,13.4457589 20.2419395,9.74628803 C20.2419395,5.17062667 16.5424686,1.56851026 12.0641617,1.56851026 C7.48850035,1.56851026 3.88638394,5.26798116 3.88638394,9.74628803 C3.88638394,11.7907325 4.66521991,13.7378224 6.02818287,15.2954944 C6.02818287,15.1981399 6.12553736,15.1981399 6.22289188,15.1981399 L6.22289188,15.1981399 Z" id="形状"></path>
                <path d="M14.9847966,21.4288277 C14.5953786,21.4288277 14.3033151,21.1367642 14.2059606,20.7473462 C14.1086062,20.1632192 13.8165427,19.5790923 13.3297702,18.9949653 C13.0377067,18.7029018 13.0377067,18.2161293 13.3297702,17.9240658 C13.6218337,17.6320023 14.1086061,17.6320023 14.4006697,17.9240658 C15.1795056,18.7029018 15.6662781,19.6764468 15.7636326,20.5526372 C15.8609871,20.9420552 15.4715691,21.3314732 15.0821511,21.3314732 C15.0821511,21.4288277 15.0821511,21.4288277 14.9847966,21.4288277 L14.9847966,21.4288277 Z M0.771040027,17.7293568 C0.478976531,17.7293568 0.186913034,17.5346478 0.089558546,17.2425843 C-0.105150463,16.8531663 0.089558546,16.4637484 0.478976531,16.2690394 C1.45252151,15.8796214 2.52342098,15.5875579 3.78902942,15.3928489 C4.37315641,15.2954944 5.05463789,15.1981399 5.63876489,15.1981399 C6.02818287,15.1007854 6.41760086,15.4902034 6.41760086,15.8796214 C6.41760086,16.2690394 6.12553736,16.6584573 5.73611937,16.6584573 C5.15199238,16.6584573 4.56786542,16.7558118 3.98373843,16.8531663 C2.91283896,17.0478754 1.93929398,17.2425843 1.06310349,17.6320023 C0.965749003,17.6320023 0.868394482,17.7293568 0.771040027,17.7293568 L0.771040027,17.7293568 Z M8.85146328,26.2965526 C8.4620453,26.2965526 8.07262731,25.9071346 8.07262731,25.5177166 C8.07262731,25.1282986 8.4620453,24.7388806 8.85146328,24.7388806 C9.24088127,24.7388806 9.63029929,25.1282986 9.63029929,25.5177166 C9.63029929,26.0044891 9.2408813,26.2965526 8.85146328,26.2965526 Z" id="形状"></path>
                <path d="M12.6482887,21.6235367 C10.7985532,21.6235367 8.94881777,21.1367642 7.29379135,20.3579282 C6.90437336,20.1632192 6.80701887,19.6764468 7.00172785,19.3843833 C7.19643686,18.9949653 7.68320933,18.8976108 7.97527283,19.0923198 C9.33823579,19.7738012 10.9932622,20.1632192 12.6482887,20.1632192 C13.4271246,20.1632192 14.1086061,20.0658647 14.8874421,19.8711558 C16.3477596,19.5790923 17.7107225,18.8976108 18.781622,18.0214203 C18.976331,17.8267113 19.17104,17.6320023 19.4631035,17.4372933 C19.755167,17.1452298 20.2419395,17.1452298 20.534003,17.4372933 C20.8260665,17.7293568 20.8260665,18.2161293 20.534003,18.5081928 C20.2419395,18.8002563 20.0472305,18.9949653 19.755167,19.1896743 C18.4895585,20.1632193 16.9318866,20.9420552 15.1795056,21.3314732 C14.4006697,21.5261822 13.5244792,21.6235367 12.6482887,21.6235367 Z" id="路径"></path>
                <path d="M22.0916749,20.1632192 C21.7022569,20.1632192 21.312839,19.7738012 21.312839,19.3843833 C21.312839,19.0923198 21.2154845,18.8976108 21.0207755,18.7029018 C20.8260665,18.6055473 20.728712,18.5081928 20.534003,18.5081928 C20.4366485,18.5081928 20.4366485,18.5081928 20.4366485,18.6055473 C20.339294,18.7029018 20.2419395,18.7029018 20.144585,18.8002563 C19.755167,18.9949653 19.365749,18.8976108 19.17104,18.4108383 C18.976331,18.0214203 19.0736855,17.6320023 19.4631035,17.4372933 C19.6578125,17.2425843 19.8525215,17.1452298 20.2419395,17.0478753 L20.339294,17.0478753 C21.0207755,16.9505208 21.7022569,17.1452298 22.0916749,17.5346478 C22.5784474,18.0214203 22.8705109,18.6055473 22.8705109,19.2870288 C22.8705109,19.7738012 22.4810929,20.1632192 22.0916749,20.1632192 L22.0916749,20.1632192 Z M14.9847966,10.914542 L9.04617229,10.914542 C8.65675431,10.914542 8.26733632,10.525124 8.26733632,10.135706 C8.26733632,9.74628803 8.65675431,9.35687005 9.04617229,9.35687005 L14.9847966,9.35687005 C15.3742146,9.35687005 15.7636326,9.74628803 15.7636326,10.135706 C15.7636326,10.525124 15.3742146,10.914542 14.9847966,10.914542 L14.9847966,10.914542 Z" id="形状"></path>
                <path d="M12.0641617,13.9325314 C11.6747437,13.9325314 11.2853257,13.5431134 11.2853257,13.1536954 L11.2853257,10.2330605 C11.2853257,9.84364252 11.6747437,9.45422454 12.0641617,9.45422454 C12.4535797,9.45422454 12.8429977,9.84364252 12.8429977,10.2330605 L12.8429977,13.2510499 C12.8429977,13.5431134 12.4535797,13.9325314 12.0641617,13.9325314 Z" id="路径"></path>
                <path d="M12.0641617,9.74628803 C11.8694527,9.74628803 11.6747437,9.64893355 11.4800347,9.55157902 L9.43559028,7.50713458 C9.14352678,7.21507108 9.14352678,6.72829861 9.43559028,6.43623511 C9.72765377,6.14417162 10.2144262,6.14417162 10.5064897,6.43623511 L12.5509342,8.48067956 C12.8429977,8.77274306 12.8429977,9.25951553 12.5509342,9.55157902 C12.4535797,9.74628803 12.2588707,9.74628803 12.0641617,9.74628803 Z" id="路径"></path>
                <path d="M12.0641617,9.74628803 C11.8694527,9.74628803 11.6747437,9.64893355 11.4800347,9.55157902 C11.1879712,9.25951553 11.1879712,8.77274306 11.4800347,8.48067956 L13.5244792,6.43623511 C13.8165427,6.14417162 14.3033151,6.14417162 14.5953786,6.43623511 C14.8874421,6.72829861 14.8874421,7.21507108 14.5953786,7.50713458 L12.5509342,9.55157902 C12.3562252,9.74628803 12.2588707,9.74628803 12.0641617,9.74628803 Z" id="路径"></path>
            </g>
        </g>
    </g>
</svg>