<?xml version="1.0" encoding="UTF-8"?>
<svg width="30px" height="30px" viewBox="0 0 30 30" version="1.1" xmlns="http://www.w3.org/2000/svg" xmlns:xlink="http://www.w3.org/1999/xlink">
    <title>理财</title>
    <g id="话费流量" stroke="none" stroke-width="1" fill="none" fill-rule="evenodd" >
        <g id="2-全部应用备份-19" transform="translate(-96.000000, -131.000000)">
            <g id="定期存款" transform="translate(87.000000, 132.000000)">
                <g id="分组-2">
                    <g id="匯款" transform="translate(10.000000, 0.000000)">
                        <path d="M22.6153846,6.45305714 L22.6153846,25.8461538 L5.38461538,25.8461538 L5.38461538,6.45305714 L22.6153846,6.45305714 Z M20.4615385,8.6109883 L7.53846154,8.6109883 L7.53846154,23.6882227 L20.4615385,23.6882227 L20.4615385,8.6109883 Z M15.0769231,9.66751569 L15.0772647,10.8458255 C16.8971513,11.1881203 18.3076923,12.3858152 18.3076923,13.983378 L18.3076923,13.983378 L16.1538462,13.983378 C16.1538462,13.6554101 15.7395884,13.2739949 15.0776938,13.0638612 L15.0772647,15.1616878 C16.8971513,15.5039826 18.3076923,16.7016775 18.3076923,18.2992403 C18.3076923,19.8968031 16.8971513,21.094498 15.0772647,21.4367928 L15.0769231,22.6151026 L12.9230769,22.6151026 L12.9227353,21.4367928 C11.1028487,21.094498 9.69230769,19.8968031 9.69230769,18.2992403 L9.69230769,18.2992403 L11.8461538,18.2992403 C11.8461538,18.6273671 12.260813,19.0089929 12.9232681,19.2190623 L12.9227353,17.1209305 C11.1028487,16.7786357 9.69230769,15.5809408 9.69230769,13.983378 C9.69230769,12.3858152 11.1028487,11.1881203 12.9227353,10.8458255 L12.9230769,9.66751569 L15.0769231,9.66751569 Z M15.0776938,17.3797236 L15.0776938,19.2187571 C15.7395884,19.0086234 16.1538462,18.6272082 16.1538462,18.2992403 C16.1538462,17.9712724 15.7395884,17.5898572 15.0776938,17.3797236 Z M12.9232681,13.063556 C12.260813,13.2736254 11.8461538,13.6552512 11.8461538,13.983378 C11.8461538,14.3115048 12.260813,14.6931306 12.9232681,14.9032 Z M25.8461538,2.15384615 L25.8461538,12.905288 L22.6218462,12.9048462 L22.6227464,10.7473569 L23.6923077,10.7473569 L23.6923077,4.31177731 L4.30769231,4.31177731 L4.30769231,10.7473569 L5.38330078,10.7473569 L5.38284615,12.9048462 L2.15384615,12.905288 L2.15384615,2.15384615 L25.8461538,2.15384615 Z" id="Combined-Shape" fill="#548191" fill-rule="nonzero"></path>
                        <rect id="矩形" x="0" y="0" width="28" height="28"></rect>
                    </g>
                </g>
            </g>
        </g>
    </g>
</svg>