<?xml version="1.0" encoding="UTF-8"?>
<svg width="20px" height="20px" viewBox="0 0 20 20" version="1.1" xmlns="http://www.w3.org/2000/svg" xmlns:xlink="http://www.w3.org/1999/xlink">
    <title>xiaoxi</title>
    <g id="首页" stroke="none" stroke-width="1" fill="none" fill-rule="evenodd">
        <g id="1-首页" transform="translate(-328.000000, -40.000000)" fill="#FFFFFF" fill-rule="nonzero">
            <g id="分组-9" transform="translate(16.000000, 36.000000)">
                <g id="xiaoxi" transform="translate(312.000000, 4.000000)">
                    <path d="M9.99998852,7.50000859 C9.30967261,7.50000859 8.74999856,8.05970559 8.74999856,8.74999856 C8.74999856,9.44031447 9.30967261,9.99998852 9.99998852,9.99998852 C10.6903044,9.99998852 11.2499785,9.44031447 11.2499785,8.74999856 C11.2499785,8.05970559 10.6903044,7.50000859 9.99998852,7.50000859 Z M4.99998279,7.50000859 C4.30966688,7.50000859 3.74999283,8.05970559 3.74999283,8.74999856 C3.74999283,9.44031447 4.30966688,9.99998852 4.99998279,9.99998852 C5.6902987,9.99998852 6.24997275,9.44031447 6.24997275,8.74999856 C6.24997275,8.05970559 5.6902987,7.50000859 4.99998279,7.50000859 Z M9.99998852,0 C4.47723174,0 0,3.91787897 0,8.74999856 C0,11.511813 1.46574524,13.9709458 3.74999283,15.574332 L3.74999283,20 L8.1307979,17.3419556 C8.73717074,17.442008 9.36066263,17.5 9.99998852,17.5 C15.5227453,17.5 20,13.5827607 20,8.74999858 C20,3.91790192 15.5227223,0 9.99998852,0 Z M9.99998852,16.2500129 C9.26999586,16.2500129 8.56503924,16.165215 7.88722988,16.0205291 L4.94504574,17.789346 L4.98442417,14.8901661 C2.72854006,13.5339737 1.24998994,11.291537 1.24998994,8.7500129 C1.24998994,4.608149 5.16754765,1.2500129 9.9999885,1.2500129 C14.8324293,1.2500129 18.7499899,4.60814898 18.7499899,8.7500129 C18.7499899,12.8924677 14.8324294,16.2500129 9.99998852,16.2500129 Z M14.9999942,7.50000859 C14.3096783,7.50000859 13.7500043,8.05970559 13.7500043,8.74999856 C13.7500043,9.44031447 14.3096783,9.99998852 14.9999942,9.99998852 C15.6903102,9.99998852 16.2499842,9.44031447 16.2499842,8.74999856 C16.2499842,8.05970559 15.6902872,7.50000859 14.9999942,7.50000859 Z" id="形状"></path>
                </g>
            </g>
        </g>
    </g>
</svg>