<?xml version="1.0" encoding="UTF-8"?>
<svg width="20px" height="20px" viewBox="0 0 20 20" version="1.1" xmlns="http://www.w3.org/2000/svg" xmlns:xlink="http://www.w3.org/1999/xlink">
    <title>kefu-2</title>
    <g id="首页" stroke="none" stroke-width="1" fill="none" fill-rule="evenodd">
        <g id="1-首页" transform="translate(-282.000000, -40.000000)" fill="#FFFFFF" fill-rule="nonzero">
            <g id="分组-9" transform="translate(16.000000, 36.000000)">
                <g id="kefu-2" transform="translate(266.000000, 4.000000)">
                    <path d="M16.3006977,6.65003469 L17.3696243,6.65003469 C16.8219483,5.13205257 15.9046885,3.85037507 14.7549942,2.91647025 C13.4484577,1.85506973 11.8404077,1.24253918 10.1325988,1.24253918 C8.42476801,1.24253918 6.81676186,1.85506973 5.51020341,2.91647025 C4.36046531,3.85039924 3.44327132,5.13205257 2.89559528,6.65003469 L3.6993023,6.65003469 C4.00246053,6.65003469 4.27985118,6.78758694 4.48182509,7.00914517 L4.48289965,7.01052311 L4.48410579,7.01165931 C4.68539987,7.23428121 4.80991755,7.53994213 4.80991755,7.87427386 L4.80991755,14.206633 C4.80991755,14.5411581 4.68513672,14.8465773 4.48410579,15.0692717 L4.48289965,15.0703354 L4.48182509,15.0717375 C4.27985118,15.2936342 4.00257018,15.4308238 3.6993023,15.4308238 L2.40480527,15.4308238 C1.74443174,15.4308238 1.14372932,15.1327053 0.708114812,14.6526987 L0.705877967,14.6502329 C0.270526612,14.1700329 0,13.5078724 0,12.78003 L0,9.30111855 C0,8.57139058 0.270416963,7.90850479 0.706009546,7.42830482 L0.707171828,7.42958606 C0.971601943,7.13823638 1.29633914,6.91387392 1.65796234,6.78217188 C2.24859896,4.78502929 3.38263529,3.10486123 4.84526847,1.91659354 C6.34134467,0.701274715 8.18062301,0 10.1325769,0 C12.0844211,0 13.9238311,0.701250541 15.4199073,1.91659354 C16.9160712,3.13205741 18.0685944,4.86226645 18.6471476,6.91972412 C18.8862408,7.04953785 19.1043588,7.22177834 19.2927843,7.42956189 L19.2939466,7.42828065 C19.7295611,7.90848062 20,8.57136641 20,9.30109437 L20,12.7800059 C20,13.5078482 19.7294734,14.1700088 19.294122,14.6502087 L19.2918852,14.6526745 C18.8562707,15.1326569 18.2555025,15.4307996 17.5951509,15.4307996 L17.235918,15.4307996 L17.3821463,15.5455796 C16.5446892,16.8357665 15.4512012,17.8632262 14.2083489,18.5673776 C12.9630186,19.2730037 11.568653,19.6561194 10.132555,19.6561194 L10.0878619,19.6560227 C9.90356349,19.8679837 9.64391408,20 9.35641377,20 C8.79665438,20 8.34301353,19.499832 8.34301353,18.8828292 C8.34301353,18.2658264 8.79665438,17.7657551 9.35641377,17.7657551 C9.76349755,17.7657551 10.1145286,18.0304404 10.2756692,18.4121781 C11.483017,18.3878828 12.6500139,18.0565971 13.6933264,17.4654608 C14.5964849,16.953972 15.4001868,16.2527204 16.0591843,15.401186 C15.8516402,15.3495495 15.665061,15.2329806 15.5181091,15.0716891 L15.5170346,15.070287 L15.5158723,15.0692233 C15.3145782,14.8465289 15.1900167,14.5413031 15.1900167,14.2065846 L15.1900167,7.87427386 C15.1900167,7.53994213 15.3146001,7.23430539 15.5158723,7.01165931 L15.5170346,7.01052311 L15.5181091,7.00914517 C15.7201707,6.7872485 15.9970351,6.65003469 16.3006977,6.65003469 L16.3006977,6.65003469 Z M3.68274527,7.8925497 L2.40480527,7.8925497 C2.05263383,7.8925497 1.73333523,8.05036008 1.50294024,8.30433616 L1.50294024,8.30680195 C1.27111981,8.56232519 1.12715036,8.91444927 1.12715036,9.30111855 L1.12715036,12.78003 C1.12715036,13.1675454 1.27076894,13.5199838 1.50177796,13.7753378 C1.73342295,14.0299666 2.05316015,14.188333 2.40480527,14.188333 L3.68274527,14.188333 L3.68274527,7.8925497 Z M17.5951947,7.8925497 L16.3172767,7.8925497 L16.3172767,14.188333 L17.5951947,14.188333 C17.9468179,14.188333 18.2666209,14.0299666 18.4982659,13.7753378 C18.729253,13.5199838 18.8728277,13.1675454 18.8728277,12.78003 L18.8728277,9.30111855 C18.8728277,8.91444927 18.7288363,8.56232519 18.4970817,8.30680195 L18.4970817,8.30433616 C18.2667086,8.05038425 17.9473662,7.8925497 17.5951947,7.8925497 Z" id="形状"></path>
                </g>
            </g>
        </g>
    </g>
</svg>