<?xml version="1.0" encoding="UTF-8"?>
<svg width="28px" height="28px" viewBox="0 0 28 28" version="1.1" xmlns="http://www.w3.org/2000/svg" xmlns:xlink="http://www.w3.org/1999/xlink">
    <title>网点预约</title>
    <g id="首页" stroke="none" stroke-width="1" fill="none" fill-rule="evenodd">
        <g id="3-全部应用备份" transform="translate(-244.000000, -131.000000)" fill="#333333" fill-rule="nonzero">
            <g id="编组-2" transform="translate(230.000000, 133.000000)">
                <path d="M29.0833333,11.2521938 L32.5833333,11.2521938 L32.5833333,12.9833006 L27.3333333,12.9833006 L27.3333333,6.05887359 L29.0833333,6.05887359 L29.0833333,11.2521938 L29.0833333,11.2521938 Z M18,10.3866404 C18,4.65026292 22.7010158,-1.77635684e-15 28.5,-1.77635684e-15 C34.2989842,-1.77635684e-15 39,4.65026292 39,10.3866404 C39,13.2548292 37.8247461,15.8514893 35.9246328,17.7311158 L30.356165,23.2394655 C29.3310244,24.2535115 27.6689483,24.2535115 26.643835,23.2394655 L21.0753672,17.7311158 C19.1752266,15.8514893 18,13.2548292 18,10.3866404 Z M27.8812783,22.0153818 C28.2229919,22.3534061 28.7770081,22.3534061 29.1187217,22.0153818 L34.6871894,16.507032 C36.3186631,14.8931449 37.25,12.7150182 37.25,10.3866404 C37.25,5.6063078 33.3325051,1.73110674 28.5,1.73110674 C23.6674949,1.73110674 19.75,5.6063078 19.75,10.3866404 C19.75,12.7150182 20.6813369,14.8931449 22.3128106,16.507032 L27.8812783,22.0153818 Z" id="形状"></path>
            </g>
        </g>
    </g>
</svg>