<?xml version="1.0" encoding="UTF-8"?>
<svg width="10px" height="14px" viewBox="0 0 10 14" version="1.1" xmlns="http://www.w3.org/2000/svg" xmlns:xlink="http://www.w3.org/1999/xlink">
    <title>语音</title>
    <g id="理财" stroke="none" stroke-width="1" fill="none" fill-rule="evenodd">
        <g id="7-理财" transform="translate(-230.000000, -43.000000)" fill="#1A1A1A">
            <g id="语音" transform="translate(230.000000, 43.000000)">
                <path d="M4.86846847,10.5 L4.93153153,10.5 C6.82342343,10.5 8.4,8.87962964 8.4,6.93518519 L8.4,3.56481481 C8.4,1.62037036 6.82342343,0 4.93153153,0 L4.86846847,0 C2.97657657,0 1.4,1.62037036 1.4,3.56481481 L1.4,7 C1.46306306,8.94444444 2.97657657,10.5 4.86846847,10.5 Z M2.40900901,3.56481481 C2.40900901,2.2037037 3.48108108,1.03703703 4.86846847,1.03703703 L4.93153153,1.03703703 C6.25585586,1.03703703 7.39099099,2.13888889 7.39099099,3.56481481 L7.39099099,7 C7.39099099,8.36111111 6.31891892,9.52777778 4.93153153,9.52777778 L4.86846847,9.52777778 C3.54414414,9.52777778 2.40900901,8.42592592 2.40900901,7 L2.40900901,3.56481481 Z" id="形状" fill-rule="nonzero"></path>
                <path d="M8.91483871,8.4 L8.7251613,8.4 L8.7251613,8.46222223 C8.7251613,9.89333333 6.95483871,11.0755556 4.8051613,11.0755556 C2.65548388,11.0755556 0.8851613,9.89333333 0.885161286,8.46222223 L0,8.46222223 C0,10.3288889 1.96,11.8222222 4.42580646,12.0088889 L4.42580646,13.0044444 L2.71870969,13.0044444 L2.71870969,14 L7.08129033,14 L7.08129033,13.0044444 L5.37419356,13.0044444 L5.37419356,12.0088889 C7.84000001,11.8222222 9.8,10.3288889 9.8,8.46222223 L9.8,8.4 L8.91483871,8.4 Z" id="路径"></path>
            </g>
        </g>
    </g>
</svg>