<?xml version="1.0" encoding="UTF-8"?>
<svg width="20px" height="20px" viewBox="0 0 20 20" version="1.1" xmlns="http://www.w3.org/2000/svg" xmlns:xlink="http://www.w3.org/1999/xlink">
    <title>理财-未选备份</title>
    <g id="首页" stroke="none" stroke-width="1" fill="none" fill-rule="evenodd">
        <g id="1-首页备份-8" transform="translate(-310.000000, -1138.000000)" fill="#BFBFBF" fill-rule="nonzero">
            <g id="bar样式1备份" transform="translate(-23.000000, 1085.000000)">
                <g id="Item-5" transform="translate(333.000000, 53.000000)">
                    <g id="wode">
                        <path d="M17.955,19 L17.9383333,18.8630413 C17.476,15.0780316 13.915,11.9982766 10,11.9982766 C6.085,11.9982766 2.524,15.0777016 2.062,18.8630413 L2.04533333,19 L1,19 L1.01866666,18.8273991 C1.38033333,15.4898977 3.73966666,12.4817572 6.88966667,11.3428551 L6.98566666,11.3078728 L6.89966666,11.2530894 C5.28933332,10.2277144 4.32799999,8.51952624 4.32799999,6.68295993 C4.32799999,3.6556782 6.97866666,1 10,1 C13.0216667,1 15.672,3.6556782 15.672,6.68361997 C15.672,8.51985627 14.7106667,10.2280444 13.1003333,11.2537494 L13.0143333,11.3085329 L13.1103333,11.3435151 C16.2603333,12.4827472 18.6196667,15.4905577 18.9813333,18.8280591 L19,19 L17.955,19 Z M10,2.04847641 C7.665,2.04847641 5.37333332,4.34443182 5.37333332,6.68328994 C5.37333332,9.12511459 7.81599999,10.9498001 10,10.9498001 C12.184,10.9498001 14.6266667,9.1254446 14.6266667,6.68328994 C14.6266667,4.34443182 12.335,2.04847641 10,2.04847641 Z" id="形状"></path>
                    </g>
                </g>
            </g>
        </g>
    </g>
</svg>