<?xml version="1.0" encoding="UTF-8"?>
<svg width="28px" height="28px" viewBox="0 0 28 28" version="1.1" xmlns="http://www.w3.org/2000/svg" xmlns:xlink="http://www.w3.org/1999/xlink">
    <title>切片备份 2</title>
    <g id="首页" stroke="none" stroke-width="1" fill="none" fill-rule="evenodd">
        <g id="licai-4" transform="translate(3.000000, 1.000000)" fill="#4F4E4E" fill-rule="nonzero">
            <path d="M10.7015377,25.3394676 C9.77032076,25.3394676 8.83910382,25.2463459 8.0010086,25.0601025 C5.30047951,24.5944941 2.87931547,23.4770337 1.29624668,21.8008432 C1.0168816,21.5214782 1.0168816,21.0558697 1.3893684,20.7765046 C1.66873348,20.4971395 2.13434194,20.4971395 2.41370702,20.8696263 C3.71741072,22.2664517 5.85920968,23.2907903 8.28037369,23.7563988 C9.02534722,23.9426422 9.86344247,23.9426422 10.7015377,23.9426422 C12.3777282,23.9426422 13.02958,23.9426422 15.171379,23.1976686 C15.8232308,22.9183036 19.2687335,20.962748 19.9205853,19.4728009 C19.9205853,19.4728009 19.9205853,19.3796792 20.013707,19.3796792 C20.1999504,19.0071925 20.2930721,18.7278274 20.3861938,18.4484623 C20.4793155,18.0759755 20.7586806,17.7966105 21.1311673,17.7966105 C21.5036541,17.7966105 21.8761409,18.1690972 21.8761409,18.541584 L21.8761409,18.6347057 C21.7830192,19.2865575 21.5967758,19.752166 21.3174107,20.2177745 C21.3174107,20.2177745 21.3174107,20.3108961 21.224289,20.3108962 C20.1999504,22.3595734 16.381961,24.5013724 15.6369874,24.7807374 C13.3089451,25.3394676 12.4708498,25.3394676 10.7015377,25.3394676 L10.7015377,25.3394676 Z M13.3089451,18.3553406 C13.1227017,18.3553406 12.9364583,18.2622189 12.8433366,18.1690972 C11.3533895,16.7722718 8.46661709,15.9341766 5.48672288,16.0272983 C5.30047948,16.0272983 5.11423611,15.9341766 4.92799271,15.8410549 C3.25180224,14.0717427 2.22746362,11.7437004 2.22746362,9.32253638 C2.22746362,4.20084325 6.41793981,0.0103670544 11.5396329,0.0103670544 C16.6613261,0.0103670544 20.8518022,4.20084325 20.8518022,9.32253638 C20.8518022,13.6992559 17.6856647,17.5172454 13.4020668,18.4484623 C13.4020668,18.3553406 13.3089451,18.3553406 13.3089451,18.3553406 Z M5.95233136,14.5373512 C9.02534722,14.5373512 11.818998,15.3754464 13.4951885,16.8653935 C16.9406912,16.0272983 19.3618552,12.8611607 19.3618552,9.32253638 C19.3618552,4.94581682 15.8232308,1.50031416 11.5396329,1.50031416 C7.16291338,1.50031416 3.71741072,5.0389385 3.71741072,9.32253638 C3.71741072,11.2780919 4.46238426,13.1405258 5.76608796,14.6304729 C5.76608796,14.5373512 5.85920965,14.5373512 5.95233136,14.5373512 L5.95233136,14.5373512 Z" id="形状"></path>
            <path d="M14.3332837,20.4971395 C13.960797,20.4971395 13.6814319,20.2177745 13.5883102,19.8452877 C13.4951885,19.2865575 13.2158234,18.7278274 12.7502149,18.1690972 C12.4708498,17.8897321 12.4708498,17.4241237 12.7502149,17.1447586 C13.02958,16.8653935 13.4951885,16.8653935 13.7745536,17.1447586 C14.5195271,17.8897321 14.9851356,18.8209491 15.0782573,19.6590443 C15.171379,20.0315311 14.7988922,20.4040179 14.4264054,20.4040179 C14.4264054,20.4971395 14.4264054,20.4971395 14.3332837,20.4971395 L14.3332837,20.4971395 Z M0.737516548,16.9585152 C0.458151464,16.9585152 0.17878638,16.7722718 0.0856646962,16.4929068 C-0.100578704,16.12042 0.0856646962,15.7479332 0.458151464,15.5616898 C1.3893684,15.189203 2.41370702,14.909838 3.62428901,14.7235946 C4.18301918,14.6304729 4.83487103,14.5373512 5.3936012,14.5373512 C5.76608796,14.4442295 6.13857473,14.8167163 6.13857473,15.189203 C6.13857473,15.5616898 5.85920965,15.9341766 5.48672288,15.9341766 C4.92799271,15.9341766 4.36926258,16.0272983 3.81053241,16.12042 C2.78619379,16.3066634 1.85497685,16.4929068 1.0168816,16.8653935 C0.923759916,16.8653935 0.8306382,16.9585152 0.737516548,16.9585152 L0.737516548,16.9585152 Z M8.46661705,25.1532242 C8.09413029,25.1532242 7.72164352,24.7807374 7.72164352,24.4082507 C7.72164352,24.0357639 8.09413029,23.6632771 8.46661705,23.6632771 C8.83910382,23.6632771 9.21159062,24.0357639 9.21159062,24.4082507 C9.21159062,24.8738591 8.83910385,25.1532242 8.46661705,25.1532242 Z" id="形状"></path>
            <path d="M12.0983631,20.6833829 C10.3290509,20.6833829 8.55973874,20.2177745 6.97666998,19.4728009 C6.60418322,19.2865575 6.51106153,18.8209491 6.6973049,18.541584 C6.8835483,18.1690972 7.34915675,18.0759755 7.62852183,18.2622189 C8.93222554,18.9140708 10.5152943,19.2865575 12.0983631,19.2865575 C12.8433366,19.2865575 13.4951885,19.1934358 14.240162,19.0071925 C15.6369874,18.7278274 16.9406911,18.0759755 17.9650297,17.2378803 C18.1512731,17.0516369 18.3375165,16.8653935 18.6168816,16.6791501 C18.8962467,16.399785 19.3618551,16.399785 19.6412203,16.6791501 C19.9205853,16.9585152 19.9205853,17.4241237 19.6412203,17.7034888 C19.3618552,17.9828539 19.1756118,18.1690972 18.8962467,18.3553406 C17.6856647,19.2865576 16.1957176,20.0315311 14.5195271,20.4040179 C13.7745536,20.5902613 12.9364583,20.6833829 12.0983631,20.6833829 Z" id="路径"></path>
            <path d="M21.1311673,19.2865575 C20.7586806,19.2865575 20.3861938,18.9140708 20.3861938,18.541584 C20.3861938,18.2622189 20.2930721,18.0759755 20.1068287,17.8897321 C19.9205853,17.7966105 19.8274636,17.7034887 19.6412203,17.7034888 C19.5480986,17.7034888 19.5480986,17.7034888 19.5480985,17.7966105 C19.4549769,17.8897321 19.3618551,17.8897321 19.2687335,17.9828538 C18.8962467,18.1690972 18.5237599,18.0759755 18.3375165,17.6103671 C18.1512731,17.2378803 18.2443948,16.8653935 18.6168816,16.6791501 C18.803125,16.4929067 18.9893684,16.399785 19.3618552,16.3066634 L19.4549769,16.3066634 C20.1068287,16.2135417 20.7586806,16.399785 21.1311673,16.7722718 C21.5967758,17.2378803 21.8761409,17.7966105 21.8761409,18.4484623 C21.8761409,18.9140708 21.5036541,19.2865575 21.1311673,19.2865575 L21.1311673,19.2865575 Z M14.3332837,10.4399967 L8.65286045,10.4399967 C8.28037369,10.4399967 7.90788692,10.0675099 7.90788692,9.69502315 C7.90788692,9.32253638 8.28037369,8.95004961 8.65286045,8.95004961 L14.3332837,8.95004961 C14.7057705,8.95004961 15.0782573,9.32253638 15.0782573,9.69502315 C15.0782573,10.0675099 14.7057705,10.4399967 14.3332837,10.4399967 L14.3332837,10.4399967 Z" id="形状"></path>
            <path d="M11.5396329,13.3267692 C11.1671462,13.3267692 10.7946594,12.9542824 10.7946594,12.5817956 L10.7946594,9.78814483 C10.7946594,9.41565806 11.1671461,9.0431713 11.5396329,9.0431713 C11.9121197,9.0431713 12.2846065,9.41565806 12.2846065,9.78814483 L12.2846065,12.6749173 C12.2846065,12.9542824 11.9121197,13.3267692 11.5396329,13.3267692 Z" id="路径"></path>
            <path d="M11.5396329,9.32253638 C11.3533895,9.32253638 11.1671462,9.2294147 10.9809028,9.13629298 L9.02534722,7.18073742 C8.74598214,6.90137234 8.74598214,6.43576389 9.02534722,6.1563988 C9.30471231,5.87703372 9.77032076,5.87703372 10.0496858,6.1563988 L12.0052414,8.11195436 C12.2846065,8.39131944 12.2846065,8.8569279 12.0052414,9.13629298 C11.9121197,9.32253638 11.7258763,9.32253638 11.5396329,9.32253638 Z" id="路径"></path>
            <path d="M11.5396329,9.32253638 C11.3533895,9.32253638 11.1671462,9.2294147 10.9809028,9.13629298 C10.7015377,8.8569279 10.7015377,8.39131944 10.9809028,8.11195436 L12.9364583,6.1563988 C13.2158234,5.87703372 13.6814319,5.87703372 13.960797,6.1563988 C14.240162,6.43576389 14.240162,6.90137234 13.960797,7.18073742 L12.0052414,9.13629298 C11.818998,9.32253638 11.7258763,9.32253638 11.5396329,9.32253638 Z" id="路径"></path>
        </g>
    </g>
</svg>