<?xml version="1.0" encoding="UTF-8"?>
<svg width="18px" height="18px" viewBox="0 0 18 18" version="1.1" xmlns="http://www.w3.org/2000/svg" xmlns:xlink="http://www.w3.org/1999/xlink">
    <title>我的-选中</title>
    <g id="我的" stroke="none" stroke-width="1" fill="none" fill-rule="evenodd">
        <g id="4-我的" transform="translate(-311.000000, -747.000000)" fill="#333333">
            <g id="我的-选中" transform="translate(311.000000, 747.000000)">
                <path d="M18,18 C15.3137085,12.6666667 12.3137085,10 9,10 C5.6862915,10 2.6862915,12.6666667 0,18 L18,18 Z" id="椭圆形"></path>
                <path d="M16.955,18 L16.9383333,17.8630413 C16.476,14.0780316 12.915,10.9982766 9,10.9982766 C5.085,10.9982766 1.524,14.0777016 1.062,17.8630413 L1.04533333,18 L0,18 L0.0186666622,17.8273991 C0.380333333,14.4898977 2.73966666,11.4817572 5.88966667,10.3428551 L5.98566666,10.3078728 L5.89966666,10.2530894 C4.28933332,9.22771443 3.32799999,7.51952624 3.32799999,5.68295993 C3.32799999,2.6556782 5.97866666,0 9,0 C12.0216667,0 14.672,2.6556782 14.672,5.68361997 C14.672,7.51985627 13.7106667,9.22804444 12.1003333,10.2537494 L12.0143333,10.3085329 L12.1103333,10.3435151 C15.2603333,11.4827472 17.6196667,14.4905577 17.9813333,17.8280591 L18,18 L16.955,18 Z" id="路径" fill-rule="nonzero"></path>
                <path d="M9,1.04847641 C6.665,1.04847641 4.37333332,3.34443182 4.37333332,5.68328994 C4.37333332,8.12511459 6.81599999,9.94980015 9,9.94980015 C11.184,9.94980015 13.6266667,8.1254446 13.6266667,5.68328994 C13.6266667,3.34443182 11.335,1.04847641 9,1.04847641 Z" id="路径" fill-rule="nonzero"></path>
            </g>
        </g>
    </g>
</svg>