<?xml version="1.0" encoding="UTF-8"?>
<svg width="21px" height="19px" viewBox="0 0 21 19" version="1.1" xmlns="http://www.w3.org/2000/svg" xmlns:xlink="http://www.w3.org/1999/xlink">
    <title>首页-选中</title>
    <g id="首页" stroke="none" stroke-width="1" fill="none" fill-rule="evenodd">
        <g id="1-首页备份-8" transform="translate(-123.000000, -1138.000000)" fill="#333333">
            <g id="bar样式1备份" transform="translate(-23.000000, 1085.000000)">
                <g id="首页-选中" transform="translate(146.000000, 53.000000)">
                    <polygon id="路径" points="17.8888889 19 11.7314815 19 11.7314815 14.2989691 9.26851851 14.2989691 9.26851851 19 3.11111111 19 3.11111111 7.6 4.3425926 7.6 4.3425926 17.8247423 8.03703703 17.8247423 8.03703703 13.1237113 12.962963 13.1237113 12.962963 17.8247423 16.6574074 17.8247423 16.6574074 7.6 17.8888889 7.6"></polygon>
                    <polygon id="路径" points="20 10.64 10.5 1.63692307 0.999999997 10.64 0 9.82153847 10.5 0 21 9.82153847"></polygon>
                    <polygon id="矩形" points="4 7.17733573 10.5 1 17 7.6 17 18 12.6666667 18 12.6666667 13.8427768 8.33333333 13.8427768 8.33333333 18 4 18"></polygon>
                </g>
            </g>
        </g>
    </g>
</svg>