<?xml version="1.0" encoding="UTF-8"?>
<svg width="20px" height="20px" viewBox="0 0 20 20" version="1.1" xmlns="http://www.w3.org/2000/svg" xmlns:xlink="http://www.w3.org/1999/xlink">
    <title>理财-未选</title>
    <g id="首页" stroke="none" stroke-width="1" fill="none" fill-rule="evenodd">
        <g id="1-首页备份-8" transform="translate(-217.000000, -1138.000000)" fill="#BFBFBF" fill-rule="nonzero">
            <g id="bar样式1备份" transform="translate(-23.000000, 1085.000000)">
                <g id="理财-未选" transform="translate(240.000000, 53.000000)">
                    <path d="M10,0 C11.3504464,0 12.6584821,0.265625 13.8928571,0.785714286 C14.1919643,0.912946429 14.3325893,1.25669643 14.2053571,1.55580357 C14.078125,1.85491071 13.734375,1.99553571 13.4352679,1.86830357 C12.3482143,1.40848214 11.1919643,1.17410714 10,1.17410714 C5.13392857,1.17633929 1.17633929,5.13392857 1.17633929,10 C1.17633929,14.8660714 5.13392857,18.8236607 10,18.8236607 C14.8660714,18.8236607 18.8236607,14.8660714 18.8236607,10 C18.8236607,8.85491071 18.6071429,7.74107143 18.1808036,6.6875 C18.0580357,6.38616071 18.203125,6.04241071 18.5044643,5.921875 C18.8058036,5.79910714 19.1495536,5.94419643 19.2700893,6.24553571 C19.7544643,7.43973214 20,8.703125 20,10 C20,15.5133929 15.5133929,20 10,20 C4.48660714,20 0,15.5133929 0,10 C0,4.48660714 4.48660714,0 10,0 Z M19.4419643,2.57366071 C19.6607143,2.81473214 19.640625,3.1875 19.3995536,3.40401786 L16.1517857,6.33705357 C16.0401786,6.43973214 15.8995536,6.48883929 15.7589286,6.48883929 C15.5982143,6.48883929 15.4375,6.42410714 15.3214286,6.29464286 C15.1026786,6.05357143 15.1227679,5.68080357 15.3638393,5.46428571 L18.6116071,2.53125 C18.8526786,2.3125 19.2254464,2.33258929 19.4419643,2.57366071 Z M17.5066964,0.908482143 C17.7254464,1.14955357 17.7053571,1.52232143 17.4642857,1.73883929 L14.2165179,4.671875 C14.1049107,4.77455357 13.9642857,4.82366071 13.8236607,4.82366071 C13.6629464,4.82366071 13.5022321,4.75892857 13.3861607,4.62946429 C13.1674107,4.38839286 13.1875,4.015625 13.4285714,3.79910714 L16.6763393,0.866071429 C16.9174107,0.647321429 17.2901786,0.667410714 17.5066964,0.908482143 Z" id="形状结合"></path>
                    <path d="M10.0021937,14.4444444 C9.71262477,14.4444444 9.47351102,14.2317077 9.43183065,13.9553691 C9.15542393,13.3456699 6.65460129,10.8454643 6.04475156,10.5691258 C5.76834485,10.5252625 5.55555556,10.2862077 5.55555556,9.99890342 C5.55555556,9.70940593 5.76834485,9.47035118 6.04475156,9.42868109 C6.65240759,9.15234257 9.15542393,6.65213696 9.42963694,6.04463086 C9.47351102,5.76829235 9.71262477,5.55555556 10,5.55555556 C10.2895689,5.55555556 10.5286827,5.76829235 10.5703631,6.04463086 C10.8467698,6.65213696 13.3475924,9.15453573 13.9552484,9.42868109 C14.2316551,9.47254434 14.4444444,9.71159909 14.4444444,9.99890342 C14.4444444,10.2884009 14.2316551,10.5274557 13.9552484,10.5691258 C13.3497861,10.8454643 10.8489635,13.3456699 10.5725568,13.9553691 C10.5308764,14.2317077 10.2917626,14.4444444 10.0021937,14.4444444 Z" id="路径"></path>
                </g>
            </g>
        </g>
    </g>
</svg>