<?xml version="1.0" encoding="UTF-8"?>
<svg width="28px" height="28px" viewBox="0 0 28 28" version="1.1" xmlns="http://www.w3.org/2000/svg" xmlns:xlink="http://www.w3.org/1999/xlink">
    <title>生活缴费</title>
    <g id="首页" stroke="none" stroke-width="1" fill="none" fill-rule="evenodd">
        <g id="3-全部应用" transform="translate(-289.000000, -617.000000)" fill="#333333" fill-rule="nonzero">
            <g id="shenghuojiaofei" transform="translate(293.000000, 620.000000)">
                <path d="M10.0991049,13.7582781 L7.34015418,12.1029077 L10.1389435,8.60443398 L11.431576,9.63852959 L9.81604408,11.6579574 L12.5749948,13.3133278 L9.7762055,16.8118015 L8.48357305,15.7777059 L10.0991049,13.7582781 L10.0991049,13.7582781 Z M0.0253518212,13.0347165 C0.0253518212,10.2920116 1.13705505,7.80895592 2.93442156,6.01156353 L8.2017798,0.744205298 C9.17148696,-0.225475993 10.7436879,-0.225475993 11.7133692,0.744205298 L16.9807274,6.01156353 C18.7781198,7.80895592 19.8897972,10.2920116 19.8897972,13.0347165 C19.8897972,18.5201262 15.4429843,22.9669392 9.9575745,22.9669392 C4.47216474,22.9669392 0.0253518212,18.5201262 0.0253518212,13.0347165 Z M9.3723096,1.9147351 L4.10495137,7.18209334 C2.56169805,8.72537252 1.68072227,10.8081798 1.68072227,13.0347165 C1.68072227,17.6058827 5.38638245,21.3115687 9.9575745,21.3115687 C14.5287666,21.3115687 18.2344267,17.6058827 18.2344267,13.0347165 C18.2344267,10.8082057 17.353451,8.72537252 15.8101976,7.18209334 L10.5428394,1.9147351 C10.2196037,1.59149938 9.69554532,1.59149938 9.3723096,1.9147351 Z" id="形状"></path>
            </g>
        </g>
    </g>
</svg>