<?xml version="1.0" encoding="UTF-8"?>
<svg width="28px" height="28px" viewBox="0 0 28 28" version="1.1" xmlns="http://www.w3.org/2000/svg" xmlns:xlink="http://www.w3.org/1999/xlink">
    <title>交易查询</title>
    <g id="首页" stroke="none" stroke-width="1" fill="none" fill-rule="evenodd">
        <g id="3-全部应用" transform="translate(-258.000000, -651.000000)" fill="#333333" fill-rule="nonzero">
            <g id="jiaoyichaxun" transform="translate(261.000000, 654.000000)">
                <path d="M16.4261227,18.1879158 C14.7026197,19.5342868 12.5334488,20.3366053 10.1769027,20.3366053 C4.56585937,20.3366053 0.0172001008,15.7879461 0.0172001008,10.1769027 C0.0172001008,4.56585938 4.56585937,0.0172001008 10.1769027,0.0172001008 C15.7879461,0.0172001008 20.3366053,4.56585938 20.3366053,10.1769027 C20.3366053,12.8214315 19.3262185,15.2299483 17.6704309,17.0375202 L20.9352747,20.3023639 L19.737936,21.4997026 L16.4261227,18.1878894 L16.4261227,18.1879158 Z M10.1769027,18.6433216 C14.8527898,18.6433216 18.6433216,14.8527898 18.6433216,10.1769027 C18.6433216,5.50101562 14.8527898,1.71048387 10.1769027,1.71048387 C5.50101562,1.71048387 1.71048387,5.50101562 1.71048387,10.1769027 C1.71048387,14.8527898 5.50101562,18.6433216 10.1769027,18.6433216 Z M7.3547631,8.93836316 L6.50121472,9.68521799 L5.38617187,8.41087576 L9.04804687,5.20673513 L9.04804687,14.6923261 L7.3547631,14.6923261 L7.3547631,8.93836316 Z M13.2881628,10.9607245 L14.1417112,10.2138697 L15.256754,11.4881855 L11.594879,14.6923261 L11.594879,5.20673513 L13.2881628,5.20673513 L13.2881628,10.9607245 L13.2881628,10.9607245 Z" id="形状"></path>
            </g>
        </g>
    </g>
</svg>