<?xml version="1.0" encoding="UTF-8"?>
<svg width="12px" height="12px" viewBox="0 0 12 12" version="1.1" xmlns="http://www.w3.org/2000/svg" xmlns:xlink="http://www.w3.org/1999/xlink">
    <title>搜索</title>
    <g id="理财" stroke="none" stroke-width="1" fill="none" fill-rule="evenodd">
        <g id="7-理财" transform="translate(-28.000000, -44.000000)" fill="#1A1A1A" fill-rule="nonzero">
            <g id="搜索" transform="translate(28.000000, 44.000000)">
                <path d="M4.67783941,0 C5.96945488,0 7.13904066,0.543108638 7.98552998,1.42090358 C8.83203412,2.29868315 9.3557529,3.511487 9.3557529,4.85086206 C9.3557529,5.93124161 9.01495273,6.92921698 8.43886355,7.73545363 L11.8158727,10.9671905 C12.0479617,11.1895004 12.0626728,11.5679851 11.8484653,11.8089144 L11.8481542,11.8089144 C11.6339022,12.0498436 11.2688354,12.0649603 11.0365538,11.8427886 L7.64720389,8.59903831 C6.83951459,9.28795194 5.80514369,9.7016934 4.67783941,9.7016934 C3.38622394,9.7016934 2.21665298,9.15860013 1.37014884,8.28077446 C0.523689155,7.40304098 0,6.19017568 0,4.8508467 C0,3.511487 0.523689155,2.29868315 1.37014884,1.42088821 C2.21665298,0.543016463 3.38622394,0 4.67783941,0 Z M7.41582599,2.01165117 C6.71526267,1.28522243 5.74712885,0.83570183 4.67783941,0.83570183 C3.6085648,0.83570183 2.64038653,1.28511489 1.93985284,2.0116358 C1.23934878,2.73806454 0.805926335,3.74203126 0.805926335,4.85083134 C0.805926335,5.95960069 1.23934878,6.96353669 1.93985284,7.6900576 C2.64038653,8.41645561 3.6085648,8.86594549 4.67783941,8.86594549 C5.74712885,8.86594549 6.71526267,8.41645561 7.41582599,7.6900576 C8.11633005,6.96353669 8.54979694,5.95960069 8.54979694,4.85083134 C8.54979694,3.74204663 8.11634486,2.7380799 7.41582599,2.01165117 Z" id="形状"></path>
            </g>
        </g>
    </g>
</svg>