<?xml version="1.0" encoding="UTF-8"?>
<svg width="13px" height="19px" viewBox="0 0 13 19" version="1.1" xmlns="http://www.w3.org/2000/svg" xmlns:xlink="http://www.w3.org/1999/xlink">
    <!-- Generator: Sketch 57.1 (83088) - https://sketch.com -->
    <title>yuyin-3</title>
    <desc>Created with Sketch.</desc>
    <g id="搜索" stroke="none" stroke-width="1" fill="none" fill-rule="evenodd">
        <g id="9-搜索" transform="translate(-261.000000, -49.000000)" fill="#000000">
            <g id="分组" transform="translate(24.000000, 40.000000)">
                <g id="yuyin-3" transform="translate(237.000000, 9.000000)">
                    <path d="M6.32900901,13.65 L6.41099099,13.65 C8.87045046,13.65 10.92,11.5435185 10.92,9.01574074 L10.92,4.63425926 C10.92,2.10648147 8.87045046,0 6.41099099,0 L6.32900901,0 C3.86954954,0 1.82,2.10648147 1.82,4.63425926 L1.82,9.09999999 C1.90198197,11.6277778 3.86954954,13.65 6.32900901,13.65 Z M3.13171171,4.63425926 C3.13171171,2.86481481 4.52540541,1.34814814 6.32900901,1.34814814 L6.41099099,1.34814814 C8.13261262,1.34814814 9.60828829,2.78055555 9.60828829,4.63425926 L9.60828829,9.09999999 C9.60828829,10.8694444 8.21459459,12.3861111 6.41099099,12.3861111 L6.32900901,12.3861111 C4.60738738,12.3861111 3.13171171,10.9537037 3.13171171,9.09999999 L3.13171171,4.63425926 Z" id="形状" fill-rule="nonzero"></path>
                    <path d="M11.5892903,10.92 L11.3427097,10.92 L11.3427097,11.0008889 C11.3427097,12.8613333 9.04129033,14.3982222 6.24670969,14.3982222 C3.45212905,14.3982222 1.15070969,12.8613333 1.15070967,11.0008889 L0,11.0008889 C0,13.4275556 2.548,15.3688889 5.75354839,15.6115555 L5.75354839,16.9057778 L3.53432259,16.9057778 L3.53432259,18.2 L9.20567743,18.2 L9.20567743,16.9057778 L6.98645162,16.9057778 L6.98645162,15.6115555 C10.192,15.3688889 12.74,13.4275556 12.74,11.0008889 L12.74,10.92 L11.5892903,10.92 Z" id="路径"></path>
                </g>
            </g>
        </g>
    </g>
</svg>