<?xml version="1.0" encoding="UTF-8"?>
<svg width="28px" height="28px" viewBox="0 0 28 28" version="1.1" xmlns="http://www.w3.org/2000/svg" xmlns:xlink="http://www.w3.org/1999/xlink">
    <title>通讯录转账</title>
    <g id="首页" stroke="none" stroke-width="1" fill="none" fill-rule="evenodd">
        <g id="3-全部应用备份" transform="translate(-245.000000, -495.000000)" fill="#333333" fill-rule="nonzero">
            <g id="编组-6" transform="translate(229.000000, 496.000000)">
                <g id="tongxunlu-4" transform="translate(18.000000, 0.000000)">
                    <path d="M22.1385542,25.3012048 L2.71084337,25.3012048 C1.71319,25.3001154 0.904703855,24.4916293 0.903614458,23.4939759 L0.903614458,20.3313253 C0.903614458,19.8322728 1.30817643,19.4277108 1.80722892,19.4277108 C2.3062814,19.4277108 2.71084337,19.8322728 2.71084337,20.3313253 L2.71084337,23.4939759 L22.1385542,23.4939759 L22.1385542,1.80722892 L2.71084337,1.80722892 L2.71084337,5.87349398 C2.71084337,6.37254646 2.3062814,6.77710843 1.80722892,6.77710843 C1.30817643,6.77710843 0.903614458,6.37254646 0.903614458,5.87349398 L0.903614458,1.80722892 C0.904703855,0.809575538 1.71319,0.00108939707 2.71084337,0 L22.1385542,0 C23.1362076,0.00108939707 23.9446937,0.809575538 23.9457831,1.80722892 L23.9457831,23.4939759 C23.9446937,24.4916293 23.1362076,25.3001154 22.1385542,25.3012048 Z" id="路径"></path>
                    <path d="M2.71084337,17.6204819 L0.903614458,17.6204819 C0.404561973,17.6204819 0,17.21592 0,16.7168675 C0,16.217815 0.404561973,15.813253 0.903614458,15.813253 L2.71084337,15.813253 C3.20989586,15.813253 3.61445783,16.217815 3.61445783,16.7168675 C3.61445783,17.21592 3.20989586,17.6204819 2.71084337,17.6204819 Z M2.71084337,14.0060241 L0.903614458,14.0060241 C0.404561973,14.0060241 0,13.6014621 0,13.1024096 C0,12.6033572 0.404561973,12.1987952 0.903614458,12.1987952 L2.71084337,12.1987952 C3.20989586,12.1987952 3.61445783,12.6033572 3.61445783,13.1024096 C3.61445783,13.6014621 3.20989586,14.0060241 2.71084337,14.0060241 Z M2.71084337,10.3915663 L0.903614458,10.3915663 C0.404561973,10.3915663 0,9.98700429 0,9.48795181 C0,8.98889932 0.404561973,8.58433735 0.903614458,8.58433735 L2.71084337,8.58433735 C3.20989586,8.58433735 3.61445783,8.98889932 3.61445783,9.48795181 C3.61445783,9.98700429 3.20989586,10.3915663 2.71084337,10.3915663 Z M12.1987952,14.4578313 C9.70764307,14.4578313 7.68072289,12.4309111 7.68072289,9.93975904 C7.68072289,7.44860693 9.70764307,5.42168675 12.1987952,5.42168675 C14.6899473,5.42168675 16.7168675,7.44860693 16.7168675,9.93975904 C16.7168675,12.4309111 14.6899473,14.4578313 12.1987952,14.4578313 Z M12.1987952,7.22891566 C10.7016377,7.22891566 9.48795181,8.44260158 9.48795181,9.93975904 C9.48795181,11.4369165 10.7016377,12.6506024 12.1987952,12.6506024 C13.6959526,12.6506024 14.9096386,11.4369165 14.9096386,9.93975904 C14.9079268,8.44331118 13.695243,7.2306274 12.1987952,7.22891566 L12.1987952,7.22891566 Z" id="形状"></path>
                    <path d="M17.6204819,19.8795181 C17.1214294,19.8795181 16.7168675,19.4749561 16.7168675,18.9759036 C16.7168675,16.4847515 14.6899473,14.4578313 12.1987952,14.4578313 C9.70764307,14.4578313 7.68072289,16.4847515 7.68072289,18.9759036 C7.68072289,19.4749561 7.27616092,19.8795181 6.77710843,19.8795181 C6.27805595,19.8795181 5.87349398,19.4749561 5.87349398,18.9759036 C5.87349398,15.4825362 8.70542779,12.6506024 12.1987952,12.6506024 C15.6921626,12.6506024 18.5240964,15.4825362 18.5240964,18.9759036 C18.5240964,19.4749561 18.1195344,19.8795181 17.6204819,19.8795181 L17.6204819,19.8795181 Z" id="路径"></path>
                    <path d="M22.1385542,25.3012048 L2.71084337,25.3012048 C1.71319,25.3001154 0.904703855,24.4916293 0.903614458,23.4939759 L0.903614458,20.3313253 C0.903614458,19.8322728 1.30817643,19.4277108 1.80722892,19.4277108 C2.3062814,19.4277108 2.71084337,19.8322728 2.71084337,20.3313253 L2.71084337,23.4939759 L22.1385542,23.4939759 L22.1385542,1.80722892 L2.71084337,1.80722892 L2.71084337,5.87349398 C2.71084337,6.37254646 2.3062814,6.77710843 1.80722892,6.77710843 C1.30817643,6.77710843 0.903614458,6.37254646 0.903614458,5.87349398 L0.903614458,1.80722892 C0.904703855,0.809575538 1.71319,0.00108939707 2.71084337,0 L22.1385542,0 C23.1362076,0.00108939707 23.9446937,0.809575538 23.9457831,1.80722892 L23.9457831,23.4939759 C23.9446937,24.4916293 23.1362076,25.3001154 22.1385542,25.3012048 Z" id="路径"></path>
                    <path d="M2.71084337,17.6204819 L0.903614458,17.6204819 C0.404561973,17.6204819 0,17.21592 0,16.7168675 C0,16.217815 0.404561973,15.813253 0.903614458,15.813253 L2.71084337,15.813253 C3.20989586,15.813253 3.61445783,16.217815 3.61445783,16.7168675 C3.61445783,17.21592 3.20989586,17.6204819 2.71084337,17.6204819 Z M2.71084337,14.0060241 L0.903614458,14.0060241 C0.404561973,14.0060241 0,13.6014621 0,13.1024096 C0,12.6033572 0.404561973,12.1987952 0.903614458,12.1987952 L2.71084337,12.1987952 C3.20989586,12.1987952 3.61445783,12.6033572 3.61445783,13.1024096 C3.61445783,13.6014621 3.20989586,14.0060241 2.71084337,14.0060241 Z M2.71084337,10.3915663 L0.903614458,10.3915663 C0.404561973,10.3915663 0,9.98700429 0,9.48795181 C0,8.98889932 0.404561973,8.58433735 0.903614458,8.58433735 L2.71084337,8.58433735 C3.20989586,8.58433735 3.61445783,8.98889932 3.61445783,9.48795181 C3.61445783,9.98700429 3.20989586,10.3915663 2.71084337,10.3915663 Z M12.1987952,14.4578313 C9.70764307,14.4578313 7.68072289,12.4309111 7.68072289,9.93975904 C7.68072289,7.44860693 9.70764307,5.42168675 12.1987952,5.42168675 C14.6899473,5.42168675 16.7168675,7.44860693 16.7168675,9.93975904 C16.7168675,12.4309111 14.6899473,14.4578313 12.1987952,14.4578313 Z M12.1987952,7.22891566 C10.7016377,7.22891566 9.48795181,8.44260158 9.48795181,9.93975904 C9.48795181,11.4369165 10.7016377,12.6506024 12.1987952,12.6506024 C13.6959526,12.6506024 14.9096386,11.4369165 14.9096386,9.93975904 C14.9079268,8.44331118 13.695243,7.2306274 12.1987952,7.22891566 L12.1987952,7.22891566 Z" id="形状"></path>
                    <path d="M17.6204819,19.8795181 C17.1214294,19.8795181 16.7168675,19.4749561 16.7168675,18.9759036 C16.7168675,16.4847515 14.6899473,14.4578313 12.1987952,14.4578313 C9.70764307,14.4578313 7.68072289,16.4847515 7.68072289,18.9759036 C7.68072289,19.4749561 7.27616092,19.8795181 6.77710843,19.8795181 C6.27805595,19.8795181 5.87349398,19.4749561 5.87349398,18.9759036 C5.87349398,15.4825362 8.70542779,12.6506024 12.1987952,12.6506024 C15.6921626,12.6506024 18.5240964,15.4825362 18.5240964,18.9759036 C18.5240964,19.4749561 18.1195344,19.8795181 17.6204819,19.8795181 L17.6204819,19.8795181 Z" id="路径"></path>
                </g>
            </g>
        </g>
    </g>
</svg>