<?xml version="1.0" encoding="UTF-8"?>
<svg width="28px" height="28px" viewBox="0 0 28 28" version="1.1" xmlns="http://www.w3.org/2000/svg" xmlns:xlink="http://www.w3.org/1999/xlink">
    <title>银行卡设置</title>
    <g id="首页" stroke="none" stroke-width="1" fill="none" fill-rule="evenodd">
        <g id="3-全部应用" transform="translate(-226.000000, -617.000000)" fill="#333333" fill-rule="nonzero">
            <g id="yinhangka-2" transform="translate(228.000000, 622.000000)">
                <path d="M20.5783468,0.0156048387 L3.37189516,0.0156048387 C1.52157258,0.0156048387 0.0170564516,1.52012097 0.0170564516,3.37044355 L0.0170564516,15.3459274 C0.0170564516,17.19625 1.52157258,18.7007661 3.37189516,18.7007661 L20.5796371,18.7007661 C22.4299597,18.7007661 23.9344758,17.19625 23.9344758,15.3459274 L23.9344758,3.37044355 C23.9331855,1.52012097 22.4286694,0.0156048387 20.5783468,0.0156048387 Z M3.37189516,1.56399194 L20.5796371,1.56399194 C21.5757661,1.56399194 22.3860887,2.37431452 22.3860887,3.37044355 L22.3860887,5.3278629 L1.56544355,5.3278629 L1.56544355,3.37044355 C1.56544355,2.37431452 2.37576613,1.56399194 3.37189516,1.56399194 Z M20.5783468,17.1510887 L3.37189516,17.1510887 C2.37576613,17.1510887 1.56544355,16.3407661 1.56544355,15.3446371 L1.56544355,6.87495968 L22.3860887,6.87495968 L22.3860887,15.3446371 C22.3847984,16.3407661 21.5744758,17.1510887 20.5783468,17.1510887 Z" id="形状"></path>
                <path d="M9.0028629,10.0930242 L3.94479839,10.0930242 C3.51770161,10.0930242 3.17060484,9.74592742 3.17060484,9.31883065 C3.17060484,8.89173387 3.51770161,8.5446371 3.94479839,8.5446371 L9.00415323,8.5446371 C9.43125,8.5446371 9.77834677,8.89173387 9.77834677,9.31883065 C9.77834677,9.74592742 9.43125,10.0930242 9.0028629,10.0930242 Z" id="路径"></path>
            </g>
        </g>
    </g>
</svg>