<?xml version="1.0" encoding="UTF-8"?>
<svg width="28px" height="28px" viewBox="0 0 28 28" version="1.1" xmlns="http://www.w3.org/2000/svg" xmlns:xlink="http://www.w3.org/1999/xlink">
    <title>银行卡转账</title>
    <g id="首页" stroke="none" stroke-width="1" fill="none" fill-rule="evenodd">
        <g id="3-全部应用" transform="translate(-258.000000, -617.000000)" fill="#333333" fill-rule="nonzero">
            <g id="yinhangkazhuanzhang" transform="translate(260.000000, 622.000000)">
                <path d="M1.8,5 L22.2,5 L22.2,2.25 C22.2,1.83579466 21.7970464,1.5 21.3,1.5 L2.7,1.5 C2.20295359,1.5 1.8,1.83579466 1.8,2.25 L1.8,5 Z M22.2,6.5 L1.8,6.5 L1.8,15.75 C1.8,16.1642053 2.20295359,16.5 2.7,16.5 L7.8,16.5 L7.8,18 L2.7,18 C1.20883263,18 0,16.9926395 0,15.75 L0,2.25 C0,1.00736053 1.20883263,0 2.7,0 L21.3,0 C22.7911674,0 24,1.00736053 24,2.25 L24,15.75 C24,16.9926395 22.7911674,18 21.3,18 L9.82720113,18 L14.0636006,14.4696671 L15.3363994,15.5303329 L14.1727989,16.5 L21.3,16.5 C21.7970464,16.5 22.2,16.1642053 22.2,15.75 L22.2,6.5 L22.2,6.5 Z" id="形状"></path>
            </g>
        </g>
    </g>
</svg>