<?xml version="1.0" encoding="UTF-8"?>
<svg width="28px" height="28px" viewBox="0 0 28 28" version="1.1" xmlns="http://www.w3.org/2000/svg" xmlns:xlink="http://www.w3.org/1999/xlink">
    <title>全部</title>
    <g id="首页" stroke="none" stroke-width="1" fill="none" fill-rule="evenodd">
        <g id="3-全部应用" transform="translate(-320.000000, -651.000000)" fill="#333333" fill-rule="nonzero">
            <g id="peizhitubiaosvg-" transform="translate(324.000000, 655.000000)">
                <path d="M4.99999999,0 C2.23857624,0 -1.17187501e-08,2.23857625 -1.17187501e-08,5 C-1.17187501e-08,7.76142376 2.23857624,10 4.99999999,10 L8.74999999,10 C9.08152061,10 9.39946301,9.86830396 9.63388349,9.63388349 C9.86830396,9.39946301 9.99999999,9.08152061 9.99999999,8.74999999 L9.99999999,5 C9.99999999,3.67391754 9.4732158,2.40214797 8.53553391,1.46446608 C7.59785201,0.526784192 6.32608244,0 4.99999999,0 Z M8.50000002,8.50000002 L5.00000002,8.50000002 C3.06700338,8.50000002 1.50000002,6.93299662 1.50000002,5.00000002 C1.50000002,3.06700339 3.06700339,1.50000002 5.00000002,1.50000002 C6.93299662,1.50000002 8.50000002,3.06700338 8.50000002,5.00000002 L8.50000002,8.50000002 Z M12.25,10 L16,10 C18.7614237,10 21,7.76142375 21,5.00000002 C21,2.23857627 18.7614237,2.34374991e-08 16,2.34374991e-08 C13.2385763,2.34374991e-08 11,2.23857625 11,5.00000002 L11,8.74999999 C11,9.08152061 11.131696,9.39946301 11.3661165,9.63388349 C11.600537,9.86830396 11.9184794,10 12.25,10 L12.25,10 Z M12.5,5.00000002 C12.5,3.06700338 14.0670034,1.50000002 16,1.50000002 C17.9329966,1.50000002 19.5,3.06700339 19.5,5.00000002 C19.5,6.93299662 17.9329966,8.50000002 16,8.50000002 L12.5,8.50000002 L12.5,5.00000002 Z M16,11 L12.25,11 C11.9184794,11 11.600537,11.131696 11.3661165,11.3661165 C11.131696,11.600537 11,11.9184794 11,12.25 L11,16 C11,18.7614237 13.2385763,21 16,21 C18.7614237,21 21,18.7614237 21,16 C21,13.2385763 18.7614237,11 16,11 L16,11 Z M16,19.5 C15.0717423,19.5 14.1815036,19.1312511 13.5251263,18.4748737 C12.8687489,17.8184964 12.5,16.9282577 12.5,16 L12.5,12.5 L16,12.5 C17.9329966,12.5 19.5,14.0670034 19.5,16 C19.5,17.9329966 17.9329966,19.5 16,19.5 L16,19.5 Z M8.74999999,11 L5.00000002,11 C2.23857625,11 2.34374976e-08,13.2385763 2.34374976e-08,16 C2.34374976e-08,18.7614237 2.23857627,21 5.00000002,21 C7.76142375,21 10,18.7614237 10,16 L10,12.25 C10,11.9184794 9.86830396,11.600537 9.63388349,11.3661165 C9.39946301,11.131696 9.08152061,11 8.74999999,11 L8.74999999,11 Z M8.50000002,16 C8.50000002,17.9329966 6.93299662,19.5 5.00000002,19.5 C3.06700339,19.5 1.50000002,17.9329966 1.50000002,16 C1.50000002,14.0670034 3.06700338,12.5 5.00000002,12.5 L8.50000002,12.5 L8.50000002,16 Z" id="形状"></path>
            </g>
        </g>
    </g>
</svg>