<?xml version="1.0" encoding="UTF-8"?>
<svg width="28px" height="28px" viewBox="0 0 28 28" version="1.1" xmlns="http://www.w3.org/2000/svg" xmlns:xlink="http://www.w3.org/1999/xlink">
    <title>理财产品</title>
    <g id="首页" stroke="none" stroke-width="1" fill="none" fill-rule="evenodd">
        <g id="3-全部应用" transform="translate(-320.000000, -617.000000)" fill="#333333" fill-rule="nonzero">
            <g id="licaishouyi" transform="translate(324.000000, 620.000000)">
                <path d="M15.1308727,5.29719003 C15.6598185,4.60789216 15.9677227,3.84872861 15.9677227,3.13270972 C15.9677227,1.9648059 15.2560053,0.00562120414 10.4903842,0.00562120414 C8.44431058,0.00562120414 5.01236788,0.411884893 5.01236788,3.13270972 C5.01236788,3.84872861 5.32029823,4.60789216 5.84927002,5.29719003 C2.35658588,7.59464975 0.0135570652,11.998351 0.0135570652,14.6304621 C0.0135570652,19.6013788 4.12569946,22.8140527 10.4904103,22.8140527 C16.8544694,22.8140527 20.9666118,19.6013788 20.9666118,14.6304621 C20.9666118,11.9983249 18.6235308,7.59405015 15.1308727,5.29719003 Z M10.4903581,21.2520335 C5.56620973,21.2520335 1.57492452,19.1367198 1.57492452,14.630436 C1.57492452,12.0572154 4.65706962,6.89135266 8.70302211,5.64031391 C7.46590435,5.03237825 6.57378747,3.9191678 6.57378747,3.13270972 C6.57378747,2.00127684 8.32710308,1.5676404 10.4903842,1.5676404 C12.6530136,1.5676404 14.4063553,2.00125076 14.4063553,3.13270972 C14.4063553,3.9191678 13.514864,5.03240434 12.2770946,5.64031391 C16.3230731,6.89137872 19.4051922,12.0572154 19.4051922,14.630436 C19.4051922,19.1367199 15.4138287,21.2520335 10.4903581,21.2520335 Z M12.9627427,13.0106994 C13.3939287,13.0106994 13.7432049,12.6608757 13.7432049,12.2297159 C13.7432049,11.7991295 13.3939547,11.4492798 12.9627427,11.4492798 L11.8859771,11.4492798 L13.0824268,10.2528301 C13.3872549,9.9479759 13.3872549,9.45362413 13.0824268,9.14874388 C12.7774944,8.84386363 12.2831687,8.84386363 11.9782884,9.14874388 L10.4994563,10.6275499 L9.02062416,9.14874388 C8.71574391,8.84386363 8.22199173,8.84386363 7.91651189,9.14874388 C7.61163164,9.45359806 7.61163164,9.9479759 7.91651189,10.2528301 L9.1129355,11.4492798 L8.01794748,11.4492798 C7.58676155,11.4492798 7.23693788,11.7991035 7.23693788,12.2297159 C7.23693788,12.6608757 7.58676157,13.0106994 8.01794748,13.0106994 L9.70934852,13.0106994 L9.70934852,13.8615747 L7.94750826,13.8615747 C7.51629627,13.8615747 7.16709826,14.2113723 7.16709826,14.6419847 C7.16709826,15.0731445 7.5162963,15.4229682 7.94750826,15.4229682 L9.70934852,15.4229682 L9.70934852,16.9145743 C9.70934852,17.3451606 10.0591722,17.6949843 10.4903581,17.6949843 C10.921518,17.6949843 11.2707421,17.3451606 11.2707421,16.9145743 L11.2707421,15.4229682 L12.8922774,15.4229682 C13.3234634,15.4229682 13.673287,15.0731445 13.673287,14.6419847 C13.673287,14.2113723 13.3234633,13.8615747 12.8922774,13.8615747 L11.2707421,13.8615747 L11.2707421,13.0106994 L12.9627427,13.0106994 Z" id="形状"></path>
            </g>
        </g>
    </g>
</svg>