<?xml version="1.0" encoding="UTF-8"?>
<svg width="28px" height="28px" viewBox="0 0 28 28" version="1.1" xmlns="http://www.w3.org/2000/svg" xmlns:xlink="http://www.w3.org/1999/xlink">
    <title>网点预约</title>
    <g id="首页" stroke="none" stroke-width="1" fill="none" fill-rule="evenodd">
        <g id="3-全部应用" transform="translate(-289.000000, -651.000000)" fill="#333333" fill-rule="nonzero">
            <path d="M303.555556,664.716375 L306.888889,664.716375 L306.888889,666.365048 L301.888889,666.365048 L301.888889,659.770356 L303.555556,659.770356 L303.555556,664.716375 L303.555556,664.716375 Z M293,663.892039 C293,658.428822 297.477158,654 303,654 C308.522842,654 313,658.428822 313,663.892039 C313,666.623647 311.880711,669.096656 310.071079,670.886777 L304.767776,676.132824 C303.791452,677.098582 302.208522,677.098582 301.232224,676.132824 L295.928921,670.886777 C294.119263,669.096656 293,666.623647 293,663.892039 Z M302.410741,674.96703 C302.736183,675.288958 303.263817,675.288958 303.589259,674.96703 L308.892561,669.720983 C310.446346,668.183948 311.333333,666.109541 311.333333,663.892039 C311.333333,659.339341 307.602386,655.648673 303,655.648673 C298.397614,655.648673 294.666667,659.339341 294.666667,663.892039 C294.666667,666.109541 295.553654,668.183948 297.107439,669.720983 L302.410741,674.96703 Z" id="形状"></path>
        </g>
    </g>
</svg>