<?xml version="1.0" encoding="UTF-8"?>
<svg width="28px" height="28px" viewBox="0 0 28 28" version="1.1" xmlns="http://www.w3.org/2000/svg" xmlns:xlink="http://www.w3.org/1999/xlink">
    <title>切片</title>
    <g id="首页" stroke="none" stroke-width="1" fill="none" fill-rule="evenodd">
        <path d="M22.5032471,25.7009757 L7.14116362,25.7009757 C6.58940694,25.7009757 5.59186709,25.458233 5.59186709,24.2831649 L5.59186709,21.4159926 L4.80884058,21.4159926 C4.39309833,21.4159926 4.0561569,21.1048652 4.0561569,20.7215793 C4.0561569,20.3375385 4.39309833,20.0274678 4.80884058,20.0274678 L5.59307476,20.0274678 L5.59307476,17.1782597 L4.80884058,17.1782597 C4.39309833,17.1782597 4.0561569,16.8681891 4.0561569,16.4829406 C4.0561569,16.1008624 4.39309833,15.789584 4.80884058,15.789584 L5.59307476,15.789584 L5.59307476,12.9192416 L4.82469131,12.9192416 C4.40894907,12.9192416 4.07185668,12.60902 4.07185668,12.2237716 C4.07185668,11.8406365 4.40894907,11.5293582 4.82454036,11.5293582 L5.59292381,11.5293582 L5.59292381,8.67592325 L4.75268367,8.67592325 C4.33694143,8.67592325 4,8.36479589 4,7.98060416 C4,7.59746915 4.33694143,7.28619083 4.75268367,7.28619083 L5.59307476,7.28619083 L5.59307476,4.4638535 C5.59307476,3.75374039 6.07388052,3 7.17935636,3 L22.5035491,3 C23.7787033,3 24.810209,3.9527049 24.810209,5.12898071 L24.810209,23.5742594 C24.8088504,24.7493276 23.7776466,25.7009757 22.5035491,25.7009757 L22.5032471,25.7009757 Z M7.13331373,4.42007527 C7.13085708,4.43453576 7.12969512,4.44918655 7.12984167,4.4638535 L7.12984167,7.28603987 L7.87588312,7.28603987 C8.29162537,7.28603987 8.62856679,7.59626148 8.62856679,7.9804532 C8.62856679,8.36464493 8.29162537,8.67577229 7.87588312,8.67577229 L7.12984167,8.67577229 L7.12984167,11.5304149 L7.94773981,11.5304149 C8.36348205,11.5304149 8.70057444,11.8416933 8.70057444,12.2248283 C8.70057444,12.609171 8.36348205,12.9202983 7.94773981,12.9202983 L7.12984167,12.9202983 L7.12984167,15.7907917 L7.93098331,15.7907917 C8.3465746,15.7907917 8.68366698,16.1019191 8.68366698,16.4839974 C8.68366698,16.8692458 8.3465746,17.1794674 7.93098331,17.1794674 L7.12953975,17.1794674 L7.12953975,20.0285246 L7.93068139,20.0285246 C8.34627268,20.0285246 8.68336506,20.3385952 8.68336506,20.7229379 C8.68336506,21.1059219 8.34627268,21.4172003 7.93068139,21.4172003 L7.12953975,21.4172003 L7.12953975,24.2842216 L19.4297133,24.2842216 L19.4297133,4.41901855 L7.17784676,4.41901855 C7.16003355,4.41901855 7.14539049,4.41901855 7.13301181,4.42007527 L7.13331373,4.42007527 Z M23.2731402,5.12898071 C23.2731402,4.73693909 22.9271412,4.41901855 22.5024923,4.41901855 L20.9654235,4.41901855 L20.9654235,24.2842216 L22.5024923,24.2842216 C22.9271412,24.2842216 23.2731402,23.966301 23.2731402,23.5742594 L23.2731402,5.12898071 Z M15.1101605,18.3723488 L13.7515257,18.3723488 C13.5701903,18.3723488 13.4231889,18.2253474 13.4231889,18.044012 L13.4231889,16.8921916 C13.423189,16.7109152 13.2762796,16.5639382 13.0950032,16.5638549 L11.4261468,16.5638549 C11.2448114,16.5638549 11.09781,16.4168535 11.09781,16.2355182 L11.09781,15.6002809 C11.09781,15.4189786 11.2448445,15.2719442 11.4261468,15.2719442 L13.0948522,15.2719442 C13.2111603,15.2719816 13.3188006,15.2104566 13.3777942,15.1102203 C13.4367878,15.0099839 13.4383216,14.8860105 13.3818261,14.7843452 L13.2586432,14.5624349 C13.2006874,14.4582083 13.0907746,14.3936013 12.9715184,14.3936623 L11.4653962,14.3936623 C11.2889604,14.3936285 11.1440944,14.2541625 11.1373614,14.0778552 L11.1109435,13.3909898 C11.1075379,13.3018119 11.1405794,13.2150896 11.2024618,13.1507866 C11.2643441,13.0864836 11.3497354,13.0501405 11.4389783,13.0501234 L12.2517438,13.0501234 C12.362281,13.0501 12.4653876,12.9944588 12.5260837,12.9020767 C12.5867797,12.8096946 12.596918,12.6929722 12.5530588,12.5915087 L11.8473236,10.7875436 C11.8034644,10.6860801 11.8136027,10.5693577 11.8742987,10.4769756 C11.9349948,10.3845935 12.0381014,10.3289289 12.1486386,10.3289289 L13.5318797,10.3289289 C13.6727249,10.3289289 13.7978702,10.4187498 13.8428561,10.5521979 L14.2546734,12.3015157 C14.3544576,12.5973961 14.7721623,12.5998115 14.8754186,12.3051387 L15.3267872,10.5485749 C15.372939,10.4170186 15.4971392,10.3289289 15.636556,10.3289289 L16.9710373,10.3289289 C17.0815744,10.3289289 17.184681,10.3845935 17.2453771,10.4769756 C17.3060731,10.5693577 17.3162114,10.6860801 17.2723523,10.7875436 L16.566617,12.5916597 C16.5227578,12.6931232 16.5328961,12.8098456 16.5935921,12.9022277 C16.6542882,12.9946098 16.7573948,13.050251 16.867932,13.0502744 L17.3834584,13.0502744 C17.5647607,13.0502744 17.7117951,13.1973089 17.7117951,13.3786111 L17.7117951,14.0654765 C17.7117118,14.2467529 17.5647348,14.3936623 17.3834584,14.3936623 L15.8898659,14.3936623 C15.7706079,14.3936623 15.6607095,14.4582729 15.602892,14.5625859 L15.4795582,14.7844962 C15.4231605,14.8861723 15.4247421,15.0100933 15.4837164,15.1102968 C15.5426907,15.2105004 15.650262,15.2720417 15.766532,15.2720951 L17.3836093,15.2720951 C17.5649116,15.2720951 17.7119461,15.4191296 17.7119461,15.6004319 L17.7119461,16.2356691 C17.7118627,16.4169455 17.5648858,16.5638549 17.3836093,16.5638549 L15.766532,16.5638549 C15.5852556,16.5639382 15.4383462,16.7109152 15.4383463,16.8921916 L15.4383463,18.044012 C15.4383863,18.1311185 15.4038115,18.214671 15.342232,18.2762787 C15.2806526,18.3378865 15.197116,18.3724997 15.1100095,18.3724997 L15.1101605,18.3723488 Z" id="形状" fill="#4F4E4E" fill-rule="nonzero"></path>
    </g>
</svg>