<?xml version="1.0" encoding="UTF-8"?>
<svg width="28px" height="28px" viewBox="0 0 28 28" version="1.1" xmlns="http://www.w3.org/2000/svg" xmlns:xlink="http://www.w3.org/1999/xlink">
    <title>切片备份</title>
    <g id="首页" stroke="none" stroke-width="1" fill="none" fill-rule="evenodd">
        <path d="M24.0685484,9.2300867 L21.8804839,9.2300867 C22.5240322,8.74525356 22.8525806,8.19068414 23.0253226,7.7457003 C23.4012903,6.75943016 23.2691935,5.59051739 22.6459677,4.45813313 C22.2733871,3.77737428 21.5079032,3.2593334 20.5967742,3.07669077 C19.3469355,2.82431189 17.9954839,3.19955944 16.7930645,4.1326972 C15.7532258,4.94296629 15.0487097,6.3310502 14.7235484,7.08486612 C14.6659678,7.21769712 14.5745161,7.44018904 14.4762903,7.71249258 C14.3780645,7.44018904 14.2866129,7.21769712 14.2290322,7.08486612 C13.9004838,6.32772944 13.1993548,4.93964551 12.1595161,4.1326972 C10.9570967,3.19955944 9.60903224,2.82431189 8.35580643,3.07669077 C7.44467738,3.26265415 6.67919354,3.77737428 6.30661289,4.45813313 C5.68677418,5.59051739 5.55129031,6.75943016 5.92725804,7.7457003 C6.09661289,8.19068414 6.42854835,8.74525356 7.07209676,9.2300867 L4.96532258,9.2300867 C4.44370967,9.2300867 4,9.64850433 4,10.1599037 L4,14.7525354 C4,15.2639347 4.44370967,15.67239 4.96532258,15.67239 L5.11774194,15.67239 L5.11774194,25.0801454 C5.11774194,25.5915447 5.56145161,26 6.08306451,26 L22.9508064,26 C23.4724193,26 23.882258,25.5948655 23.882258,25.0801454 L23.8822581,15.67239 L24.0685484,15.67239 C24.5901613,15.67239 25,15.2672555 25,14.7525354 L25,10.1599037 C25,9.64850436 24.5901613,9.2300867 24.0685484,9.2300867 Z M16.0919355,10.6912277 L16.0919355,14.2112491 L12.8403226,14.2112491 L12.8403226,10.6912277 L16.0919355,10.6912277 Z M16.0919355,15.7055978 L16.0919355,24.5388591 L12.8403226,24.5388591 L12.8403226,15.7055978 L16.0919355,15.7055978 Z M23.5096774,14.2112491 L17.5822581,14.2112491 L17.5822581,10.6912277 L23.5096774,10.6912277 L23.5096774,14.2112491 Z M16.1325806,7.57302004 C16.5898387,6.54357982 17.1690323,5.71006531 17.721129,5.27836458 C18.8659677,4.38839691 19.8245161,4.41164232 20.2953226,4.50794482 C20.8643548,4.62417194 21.2098387,4.92636245 21.3317742,5.14885437 C21.745,5.90599105 21.85,6.64652385 21.6264516,7.23098024 C21.4096774,7.79883275 20.8982258,8.23385426 20.1056452,8.52608246 C19.0624194,8.91129235 17.0843549,9.23008676 15.6075807,9.15702969 C15.6753226,8.80834831 15.8345161,8.24713734 16.1325806,7.57302004 Z M7.62080648,5.15217513 C7.74274195,4.92968321 8.08822582,4.62417191 8.66064518,4.51126557 C8.78596776,4.48469937 8.94177423,4.46477474 9.12806452,4.46477474 C9.64967743,4.46477474 10.3914516,4.62417194 11.2348387,5.28168537 C11.7869355,5.71006534 12.366129,6.5469006 12.8233871,7.57634083 C13.1248387,8.25045813 13.2840323,8.81498988 13.3483871,9.16699202 C11.8716129,9.24004906 9.8935484,8.92125468 8.85032259,8.5360448 C8.05774193,8.24381659 7.54629032,7.80547432 7.32951614,7.24094257 C7.09919357,6.64652382 7.20419356,5.90599102 7.62080648,5.15217513 Z M5.49032259,10.6912277 L11.35,10.6912277 L11.35,14.2112491 L5.49032259,14.2112491 L5.49032259,10.6912277 Z M6.60806453,15.7055978 L11.35,15.7055978 L11.35,24.5388591 L6.60806453,24.5388591 L6.60806453,15.7055978 Z M22.3919355,24.5388591 L17.5822581,24.5388591 L17.5822581,15.7055978 L22.3919355,15.7055978 L22.3919355,24.5388591 Z" id="形状" fill="#4F4E4E" fill-rule="nonzero"></path>
    </g>
</svg>