<?xml version="1.0" encoding="UTF-8"?>
<svg width="28px" height="28px" viewBox="0 0 28 28" version="1.1" xmlns="http://www.w3.org/2000/svg" xmlns:xlink="http://www.w3.org/1999/xlink">
    <title>切片备份 3</title>
    <g id="首页" stroke="none" stroke-width="1" fill="none" fill-rule="evenodd">
        <g id="mingxi" transform="translate(4.000000, 3.000000)" fill="#4F4E4E" fill-rule="nonzero">
            <path d="M17.8360849,23.077175 L2.11281447,23.077175 C0.954984806,23.077175 0.0163784149,22.1385687 0.0163784149,20.980739 L0.0163784149,2.11281447 C0.0163784149,0.954984806 0.954984806,0.0163784149 2.11281447,0.0163784149 L17.8360849,0.0163784149 C18.9939146,0.0163784149 19.932521,0.954984806 19.932521,2.11281447 L19.932521,20.980739 C19.932521,22.1385687 18.9939146,23.077175 17.8360849,23.077175 Z M18.3601939,2.63692347 C18.3601939,2.05800865 17.8908907,1.58870546 17.3119759,1.58870546 L2.63692347,1.58870546 C2.05800865,1.58870546 1.58870546,2.05800865 1.58870546,2.63692347 L1.58870546,20.45663 C1.58870546,21.0355448 2.05800865,21.504848 2.63692347,21.504848 L17.3119759,21.504848 C17.8908907,21.504848 18.3601939,21.0355448 18.3601939,20.45663 L18.3601939,2.63692347 L18.3601939,2.63692347 Z" id="形状"></path>
            <path d="M15.4775943,12.5949948 L7.09185011,12.5949948 C6.65766399,12.5949948 6.30568659,12.2430174 6.30568659,11.8088312 C6.30568659,11.3746451 6.65766399,11.0226677 7.09185011,11.0226677 L15.4775943,11.0226677 C15.9117805,11.0226677 16.2637579,11.3746451 16.2637579,11.8088312 C16.2637579,12.2430174 15.9117805,12.5949948 15.4775943,12.5949948 Z M15.4775943,7.87801364 L7.09185011,7.87801364 C6.65766399,7.87801364 6.30568659,7.52603624 6.30568659,7.09185011 C6.30568659,6.65766399 6.65766399,6.30568659 7.09185011,6.30568659 L15.4775943,6.30568659 C15.9117805,6.30568659 16.2637579,6.65766399 16.2637579,7.09185011 C16.2637579,7.52603624 15.9117805,7.87801364 15.4775943,7.87801364 Z M4.47130503,17.3119759 C4.03711891,17.3119759 3.68514151,16.9599985 3.68514151,16.5258124 C3.68514151,16.0916263 4.03711891,15.7396489 4.47130503,15.7396489 C4.90549116,15.7396489 5.25746855,16.0916263 5.25746855,16.5258124 C5.25746855,16.9599985 4.90549116,17.3119759 4.47130503,17.3119759 Z M4.47130503,12.5949948 C4.03711891,12.5949948 3.68514151,12.2430174 3.68514151,11.8088312 C3.68514151,11.3746451 4.03711891,11.0226677 4.47130503,11.0226677 C4.90549116,11.0226677 5.25746855,11.3746451 5.25746855,11.8088312 C5.25746855,12.2430174 4.90549116,12.5949948 4.47130503,12.5949948 Z M4.47130503,7.87801364 C4.03711891,7.87801364 3.68514151,7.52603624 3.68514151,7.09185011 C3.68514151,6.65766399 4.03711891,6.30568659 4.47130503,6.30568659 C4.90549116,6.30568659 5.25746855,6.65766399 5.25746855,7.09185011 C5.25746855,7.52603624 4.90549116,7.87801364 4.47130503,7.87801364 Z M7.09185011,15.7396489 L15.4775943,15.7396489 C15.9117805,15.7396489 16.2637579,16.0916263 16.2637579,16.5258124 C16.2637579,16.9599985 15.9117805,17.3119759 15.4775943,17.3119759 L7.09185011,17.3119759 C6.65766399,17.3119759 6.30568659,16.9599985 6.30568659,16.5258124 C6.30568659,16.0916263 6.65766399,15.7396489 7.09185011,15.7396489 Z" id="形状"></path>
        </g>
    </g>
</svg>