<?xml version="1.0" encoding="UTF-8"?>
<svg width="28px" height="28px" viewBox="0 0 28 28" version="1.1" xmlns="http://www.w3.org/2000/svg" xmlns:xlink="http://www.w3.org/1999/xlink">
    <title>切片备份 2</title>
    <g id="首页" stroke="none" stroke-width="1" fill="none" fill-rule="evenodd">
        <g id="yuyue-2" transform="translate(3.000000, 3.000000)" fill="#4F4E4E" fill-rule="nonzero">
            <path d="M9.64529454,19.5474699 L2.65503772,19.5474699 C2.12630208,19.5474699 1.69618804,19.1170977 1.69618804,18.5883621 L1.69618804,8.84160605 L20.2094221,8.84160605 L20.2094221,9.39125359 C20.2094221,9.8590607 20.5884182,10.2380568 21.0562253,10.2380568 C21.5240324,10.2380568 21.9030285,9.8590607 21.9030285,9.39125359 L21.9030285,4.5724789 C21.9030285,3.10993624 20.7131151,1.9200229 19.2503143,1.9200229 L17.2564543,1.9200229 L17.2564543,0.8573882 C17.2564543,0.389581088 16.8772001,0.0105850395 16.4096511,0.0105850395 C15.9421022,0.0105850395 15.562848,0.38983926 15.562848,0.8573882 L15.562848,1.9200229 L6.47701149,1.9200229 L6.47701149,0.8573882 C6.47701149,0.389581088 6.09775727,0.0105850395 5.63020833,0.0105850395 C5.16240122,0.0105850395 4.78340517,0.38983926 4.78340517,0.8573882 L4.78340517,1.9200229 L2.65477954,1.9200229 C1.19223689,1.9200229 0.00232354526,3.10967807 0.00232354526,4.5724789 L0.00232354526,18.5883621 C0.00232354526,20.0509047 1.19197872,21.2410762 2.65477954,21.2410762 L9.64529454,21.2410762 C10.1131017,21.2410762 10.4920977,20.8620802 10.4920977,20.3942731 C10.4920977,19.926466 10.1131017,19.5474699 9.64529454,19.5474699 Z M2.65503772,3.61362922 L4.78366334,3.61362922 L4.78366334,4.52988057 C4.78366334,4.99768768 5.16291756,5.37668373 5.63046651,5.37668373 C6.09827362,5.37668373 6.47726967,4.99742951 6.47726967,4.52988057 L6.47726967,3.61362922 L15.5631061,3.61362922 L15.5631061,4.52988057 C15.5631061,4.99768768 15.9423604,5.37668373 16.4099093,5.37668373 C16.8774582,5.37668373 17.2567125,4.99742951 17.2567125,4.52988057 L17.2567125,3.61362922 L19.2505725,3.61362922 C19.7793081,3.61362922 20.2096803,4.04374327 20.2096803,4.5724789 L20.2096803,7.14799973 L1.69618804,7.14799973 L1.69618804,4.5724789 C1.69618804,4.04374327 2.12630208,3.61362922 2.65503772,3.61362922 L2.65503772,3.61362922 Z" id="形状"></path>
            <path d="M7.34085399,11.603785 L3.91982085,11.603785 C3.45201374,11.603785 3.07301769,11.9830392 3.07301769,12.4505882 C3.07301769,12.9181371 3.45227191,13.2973913 3.91982085,13.2973913 L7.34085399,13.2973913 C7.8086611,13.2973913 8.18765715,12.9181371 8.18765715,12.4505882 C8.18765715,11.9830392 7.8086611,11.603785 7.34085399,11.603785 L7.34085399,11.603785 Z M19.2789714,15.630489 L17.4895833,15.630489 L17.4895833,13.6175242 C17.4895833,13.227685 17.1735812,12.911941 16.7840001,12.911941 C16.3941608,12.911941 16.0784168,13.2279432 16.0784168,13.6175242 L16.0784168,16.3360722 C16.0784168,16.7259115 16.394419,17.0416554 16.7840001,17.0416554 L19.2789714,17.0416554 C19.6685524,17.0416554 19.9845546,16.7256533 19.9845546,16.3360722 C19.9845546,15.9464911 19.6688106,15.630489 19.2789714,15.630489 L19.2789714,15.630489 Z M7.34085399,16.1197243 L3.91982085,16.1197243 C3.45201374,16.1197243 3.07301769,16.4989785 3.07301769,16.9665275 C3.07301769,17.4343346 3.45227191,17.8133306 3.91982085,17.8133306 L7.34085399,17.8133306 C7.8086611,17.8133306 8.18765715,17.4340764 8.18765715,16.9665275 C8.18765715,16.4987204 7.8086611,16.1197243 7.34085399,16.1197243 L7.34085399,16.1197243 Z" id="形状"></path>
            <path d="M16.7566339,10.0106075 C13.3252739,10.0106075 10.5334052,12.8024762 10.5334052,16.2338362 C10.5334052,19.6651962 13.3252739,22.4570649 16.7566339,22.4570649 C20.1879939,22.4570649 22.9798626,19.6651962 22.9798626,16.2338362 C22.9798626,12.8024762 20.1879939,10.0106075 16.7566339,10.0106075 Z M16.7566339,20.7632004 C14.2588227,20.7632004 12.2270115,18.7313892 12.2270115,16.233578 C12.2270115,13.7357669 14.2588227,11.7039556 16.7566339,11.7039556 C19.254445,11.7039556 21.2862563,13.7360251 21.2862563,16.2338362 C21.2862563,18.7316474 19.254445,20.7632004 16.7566339,20.7632004 Z" id="形状"></path>
        </g>
    </g>
</svg>