<?xml version="1.0" encoding="UTF-8"?>
<svg width="28px" height="28px" viewBox="0 0 28 28" version="1.1" xmlns="http://www.w3.org/2000/svg" xmlns:xlink="http://www.w3.org/1999/xlink">
    <title>设置</title>
    <g id="首页" stroke="none" stroke-width="1" fill="none" fill-rule="evenodd">
        <g id="3-全部应用" transform="translate(-194.000000, -616.000000)" fill="#333333" fill-rule="nonzero">
            <g id="shezhi" transform="translate(197.000000, 618.000000)">
                <path d="M20.1929899,13.530445 C19.3122625,12.3274124 19.3122625,10.6926072 20.1929899,9.48957454 C21.8701964,7.19851932 20.1860615,4.04724451 17.4571368,4.04724451 C17.3282702,4.04724451 17.1966322,4.05417283 17.0633314,4.06886085 C16.9388989,4.08244035 16.8150206,4.08909153 16.6919737,4.08909153 C15.3492663,4.08909153 14.1146405,3.29815509 13.5637009,2.04856419 C12.963986,0.688397382 11.6988756,0.00803684544 10.4340424,0.00803684544 C9.16920925,0.00803684544 7.90409892,0.688120249 7.30438397,2.04856419 C6.75344436,3.29843222 5.51909576,4.08909153 4.17611117,4.08909153 C4.05306429,4.08909153 3.92918602,4.08244035 3.80475348,4.06886085 C3.67117557,4.05444996 3.54009185,4.04724451 3.41094806,4.04724451 C0.682300465,4.04724451 -1.00183435,7.19879645 0.675095017,9.48957454 C1.55582242,10.6926072 1.55582242,12.3274124 0.675095017,13.530445 C-1.00211149,15.8215002 0.682023332,18.972775 3.41094806,18.972775 C3.53981472,18.972775 3.6714527,18.9658467 3.80475348,18.9511587 C3.92918602,18.9375792 4.05306429,18.930928 4.17611117,18.930928 C5.51881862,18.930928 6.75344436,19.7218644 7.30438397,20.9714553 C7.90409892,22.3316221 9.16920925,23.0119827 10.4340424,23.0119827 C11.6988756,23.0119827 12.963986,22.3318993 13.5637009,20.9714553 C14.1146405,19.7215873 15.3489891,18.930928 16.6919737,18.930928 C16.8150206,18.930928 16.9388989,18.9375792 17.0633314,18.9511587 C17.1969093,18.9655696 17.327993,18.972775 17.4571368,18.972775 C20.1857844,18.972775 21.8699192,15.8212231 20.1929899,13.530445 L20.1929899,13.530445 Z M18.1150496,13.0712363 C18.2817268,13.5879706 18.5302405,14.0746121 18.8511138,14.5126029 C19.4264411,15.298551 19.1490314,16.0529059 19.0029825,16.3408467 C18.8563793,16.629896 18.6396616,16.8726642 18.3766628,17.0431007 C18.1028558,17.2201885 17.7932987,17.3099794 17.4568597,17.3099794 C17.3867451,17.3099794 17.3149678,17.3060996 17.2429133,17.2980627 C17.0599437,17.2781233 16.8760266,17.2681319 16.6919737,17.2681324 C14.6797139,17.2681324 12.8545186,18.4584169 12.0422429,20.3005173 C11.8920371,20.6411133 11.6670054,20.906052 11.3729677,21.087851 C11.0969436,21.2585647 10.7724213,21.3489099 10.4340424,21.3489099 C10.0956635,21.3489099 9.77086413,21.2585647 9.49511719,21.087851 C9.20135663,20.9057749 8.97604783,20.6411133 8.82584196,20.3005173 C8.0135663,18.4584169 6.18837099,17.2681324 4.17611117,17.2681324 C3.99292652,17.2681324 3.80752481,17.2781092 3.62517156,17.2980627 C3.55311708,17.3058224 3.48106261,17.3099794 3.41122519,17.3099794 C3.07478621,17.3099794 2.7652291,17.2201885 2.49114495,17.0431007 C2.22814611,16.8729413 2.01142842,16.6301731 1.86482527,16.3411238 C1.71877639,16.0531831 1.44136666,15.2991053 2.01697107,14.5128801 C2.33784197,14.0748877 2.58635545,13.5882467 2.75303526,13.0715134 C2.91598923,12.5665778 2.99857475,12.0414115 2.99857475,11.5104255 C2.99857475,10.9794394 2.91598923,10.453996 2.75303526,9.94933752 C2.58635812,9.43260316 2.33784442,8.94596169 2.01697107,8.50797086 C1.44164379,7.7220228 1.71905353,6.96766786 1.86510241,6.67972709 C2.01170555,6.39067779 2.22842325,6.14790963 2.49142209,5.97747308 C2.7652291,5.80038535 3.07478621,5.71059438 3.41122519,5.71059438 C3.48133974,5.71059438 3.55311708,5.71447424 3.62517156,5.72251109 C3.80814115,5.74245046 3.99205832,5.75244193 4.17611117,5.75244141 C6.18837099,5.75244141 8.0135663,4.56215688 8.82584196,2.72005648 C8.97604783,2.37946052 9.2010795,2.11452175 9.49511719,1.93272276 C9.77114126,1.76200908 10.0956635,1.67166385 10.4340424,1.67166385 C10.7724213,1.67166385 11.0972208,1.76200908 11.3729677,1.93272276 C11.6670054,2.11479888 11.8920371,2.37946052 12.0422429,2.72005648 C12.8545186,4.56215688 14.6797139,5.75244141 16.6919737,5.75244141 C16.8751584,5.75244141 17.0605601,5.74246463 17.2429133,5.72251109 C17.3149678,5.71475137 17.3870223,5.71059438 17.4568597,5.71059438 C17.7932987,5.71059438 18.1028558,5.80038535 18.3769399,5.97747308 C18.6399388,6.1476325 18.8566565,6.39040065 19.0032596,6.67944996 C19.1493085,6.96739073 19.4267182,7.72146854 18.8511138,8.50769373 C18.5302429,8.94568607 18.2817294,9.43232713 18.1150496,9.94906039 C17.9521959,10.4534108 17.8693453,10.9801572 17.8695101,11.5101483 C17.8695101,12.0411344 17.9520957,12.5663007 18.1150496,13.0712363 L18.1150496,13.0712363 Z" id="形状"></path>
                <path d="M10.4340424,7.41440562 C8.18483425,7.41440562 6.36130173,9.23793813 6.36130173,11.4871463 C6.36130173,13.7363545 8.18483425,15.559887 10.4340424,15.559887 C12.6832506,15.559887 14.5067832,13.7363545 14.5067832,11.4871463 C14.5067832,9.23793813 12.6832506,7.41440562 10.4340424,7.41440562 Z M10.4340424,13.8970914 C9.10519162,13.8970914 8.02409734,12.8159971 8.02409734,11.4871463 C8.02409734,10.1582955 9.10519162,9.07720122 10.4340424,9.07720122 C11.7628933,9.07720122 12.8439875,10.1582955 12.8439875,11.4871463 C12.8439875,12.8159971 11.7628933,13.8970914 10.4340424,13.8970914 Z" id="形状"></path>
            </g>
        </g>
    </g>
</svg>